<svg width="176" height="81" viewBox="0 0 176 81" fill="none" xmlns="http://www.w3.org/2000/svg">
<rect opacity="0.2" width="176" height="80.4138" rx="20" fill="white" fill-opacity="0.9"/>
<path d="M46.5514 21.2413C46.9738 21.2989 47.3962 21.363 47.8314 21.4078C51.2151 21.7774 54.4288 23.0828 57.1117 25.1775C60.8617 27.9727 63.4047 32.0927 64.2223 36.6978C65.2894 42.0052 63.9668 47.5133 60.6063 51.7575C57.8848 55.3712 53.935 57.8641 49.5019 58.7657C48.6315 58.9577 47.7291 59.0025 46.8458 59.1177L46.2058 59.2137H44.9258C44.8685 59.1861 44.8084 59.1646 44.7466 59.1497C43.8569 59.0537 42.9545 59.0217 42.0777 58.8489C37.494 58.0209 33.3851 55.5099 30.5573 51.8087C28.4257 49.1112 27.095 45.8689 26.7172 42.4516C26.6724 42.0292 26.6084 41.6068 26.5508 41.1716V39.2899C26.5508 39.1235 26.6212 38.9635 26.6468 38.7971C26.762 37.9523 26.8196 37.0882 27.0052 36.237C27.9338 31.812 30.435 27.8737 34.0454 25.1519C36.7551 23.053 39.9991 21.7558 43.4089 21.4078C43.8313 21.363 44.2537 21.299 44.6889 21.2413H46.5642H46.5514ZM45.6362 23.6414C36.4778 23.6132 29.0305 31.0146 29.0022 40.1731C28.9739 49.3315 36.3753 56.7788 45.5338 56.8071C54.6923 56.8354 62.1396 49.4339 62.1679 40.2755C62.1679 40.2648 62.1679 40.2542 62.1679 40.2436C62.1785 31.0975 54.7821 23.6697 45.6362 23.6414Z" fill="white"/>
<path d="M94.5472 33.6642C94.5472 33.4082 94.5856 33.2418 94.5856 33.0818C94.5856 31.4818 94.5856 29.8817 94.5856 28.2817C94.5679 27.7553 94.9803 27.3143 95.5067 27.2966C95.5154 27.2962 95.5241 27.2961 95.5328 27.296C96.1102 27.1492 96.7076 27.4492 96.9345 28.0001C96.9678 28.1253 96.9829 28.2546 96.9793 28.3841C96.9793 33.6578 96.9793 38.9294 96.9793 44.199C96.9465 46.918 94.8564 49.1687 92.1472 49.4023C90.5202 49.6293 88.8702 49.196 87.5646 48.1991C86.4786 47.4127 85.8059 46.1779 85.7341 44.839C85.6317 42.3813 85.5869 39.9237 85.6637 37.466C85.8186 34.4973 88.3508 32.2163 91.3195 32.3712C92.5088 32.4333 93.644 32.888 94.5472 33.6642ZM94.5472 40.922H94.5856C94.5856 40.09 94.5856 39.258 94.5856 38.426C94.5764 37.9972 94.5379 37.5695 94.4704 37.1459C94.2464 35.7379 93.0751 34.3618 90.8415 34.5859C89.2754 34.7749 88.0908 36.0935 88.0702 37.6708C88.0702 39.8468 88.0702 42.0165 88.0702 44.1926C88.0658 45.0777 88.4466 45.921 89.1134 46.503C90.0911 47.3802 91.502 47.58 92.6848 47.0086C93.8278 46.5298 94.5545 45.3926 94.5088 44.1541C94.5856 43.0789 94.5472 41.9973 94.5472 40.9156V40.922H94.5472Z" fill="white"/>
<path d="M81.2942 40.7876C81.2942 41.9972 81.2942 43.2069 81.2942 44.4165C81.1834 46.9012 79.3358 48.963 76.8781 49.3446C75.1979 49.6656 73.4598 49.2814 72.0715 48.2822C70.0131 46.7974 69.4834 43.9578 70.8683 41.8308C71.5136 40.9505 72.4581 40.336 73.5244 40.1027C74.9516 39.7315 76.398 39.4179 77.8317 39.0787L78.1709 38.9955C78.6159 38.9758 78.9605 38.5991 78.9408 38.1541C78.9385 38.1034 78.9315 38.0529 78.9197 38.0035C79.0521 36.8083 78.4937 35.6418 77.4797 34.9954C76.0042 34.0225 74.0194 34.4299 73.0465 35.9054C72.8283 36.2363 72.6735 36.6048 72.5899 36.9922C72.5585 37.2041 72.5435 37.4181 72.5451 37.6323C72.5451 38.3491 72.1163 38.7011 71.3035 38.6947C70.7468 38.7945 70.2146 38.4241 70.1148 37.8674C70.1009 37.7898 70.096 37.711 70.1002 37.6323C70.0605 35.0136 71.9849 32.7787 74.5803 32.4289C75.9291 32.1479 77.3334 32.3353 78.5613 32.9602C80.3543 33.8369 81.4537 35.6963 81.3582 37.6899C81.3582 38.7203 81.3582 39.7443 81.3582 40.7748L81.2942 40.7876ZM78.8877 41.0372C78.8512 41.0206 78.8123 41.0098 78.7725 41.0052C77.3516 41.3444 75.918 41.6452 74.5035 42.0228C73.1974 42.2488 72.3218 43.4907 72.5477 44.7969C72.5576 44.854 72.5695 44.9107 72.5835 44.9669C72.9847 46.4423 74.3894 47.4149 75.9116 47.271C77.4472 47.2233 78.7083 46.0418 78.8557 44.5125C78.9453 43.5077 78.9133 42.49 78.9389 41.4788C78.9133 41.3252 78.9004 41.1716 78.8941 41.0372H78.8877Z" fill="white"/>
<path d="M129.832 32.2689C131.79 32.3457 133.442 32.9089 134.606 34.5154C135.186 35.3118 135.453 36.2936 135.355 37.2739C135.314 37.7499 134.924 38.1204 134.446 38.1379C133.877 38.35 133.243 38.0601 133.031 37.4903C132.986 37.3698 132.962 37.2424 132.961 37.1139C132.961 35.3923 131.374 34.4002 129.761 34.4706C129.016 34.4648 128.297 34.7442 127.752 35.2515C126.885 36.0994 126.87 37.4892 127.718 38.3558C127.792 38.4318 127.872 38.5023 127.956 38.5667C128.7 39.0686 129.528 39.4308 130.401 39.6356C131.259 39.8836 132.098 40.1937 132.91 40.5636C134.721 41.3458 135.79 43.2363 135.528 45.1909C135.472 46.8689 134.392 48.3406 132.808 48.8967C130.702 49.8483 128.245 49.5682 126.408 48.167C125.219 47.3336 124.56 45.934 124.673 44.4869C124.665 44.1508 124.863 43.8437 125.172 43.7125C125.618 43.5129 126.128 43.5129 126.574 43.7125C126.876 43.8323 127.069 44.1304 127.054 44.4549C127.022 46.0998 128.398 47.015 129.723 47.1878C130.356 47.2745 131 47.2019 131.598 46.9766C132.411 46.7075 132.993 45.9905 133.089 45.1397C133.231 44.3112 132.912 43.4712 132.257 42.9445C131.465 42.3514 130.548 41.9465 129.576 41.7604C128.273 41.4952 127.054 40.9176 126.024 40.0772C125.251 39.4029 124.769 38.4556 124.679 37.4339C124.353 34.2338 126.836 32.5889 129.025 32.3522L129.832 32.2689Z" fill="white"/>
<path d="M108.985 38.8868C108.985 37.0755 108.985 35.2643 108.985 33.4595C108.913 33.0199 109.159 32.5898 109.574 32.429C110.101 32.2192 110.701 32.3044 111.149 32.6531C111.257 32.7963 111.332 32.9628 111.366 33.1395C111.398 33.3319 111.409 33.5271 111.398 33.7219C111.398 37.0564 111.398 40.3909 111.398 43.719C111.397 44.2512 111.479 44.7802 111.641 45.287C112.254 46.9448 114.095 47.7919 115.752 47.1792C116.696 46.8305 117.42 46.0586 117.709 45.095C117.818 44.7076 117.874 44.3071 117.875 43.9045C117.875 40.4399 117.875 36.9774 117.875 33.5171C117.795 33.0649 118.04 32.6179 118.464 32.4418C118.955 32.2003 119.542 32.2652 119.968 32.6082C120.175 32.8194 120.296 33.1 120.307 33.3955C120.307 36.9732 120.371 40.5573 120.307 44.135C120.256 47.0919 118.458 49.0759 115.481 49.4664C113.39 49.8614 111.256 49.0383 109.971 47.3415C109.331 46.5075 108.983 45.4868 108.979 44.4358C108.979 42.5862 108.979 40.7365 108.979 38.8868H108.985Z" fill="white"/>
<path d="M143.706 34.9634C143.706 35.1618 143.668 35.3282 143.668 35.4946C143.668 38.5667 143.668 41.6388 143.668 44.7109C143.614 45.4045 143.829 46.092 144.269 46.631C145.19 47.5692 146.666 47.6762 147.713 46.8806C148.041 46.5793 148.528 46.5298 148.909 46.759C149.383 46.9923 149.623 47.5308 149.479 48.039C149.376 48.3545 149.174 48.6283 148.903 48.8199C147.897 49.4645 146.695 49.732 145.511 49.5751C144.384 49.5053 143.32 49.0302 142.516 48.2375C141.704 47.4596 141.242 46.3858 141.236 45.2614C141.236 42.0101 141.236 38.7524 141.236 35.5011C141.236 34.9827 141.236 34.9827 140.73 34.9827H139.053C138.553 35.0214 138.116 34.6471 138.077 34.1466C138.071 34.0732 138.074 33.9993 138.087 33.9266C138.087 33.1714 138.355 32.8322 139.015 32.8194C139.674 32.8066 140.212 32.8194 140.813 32.8194C141.001 32.8681 141.193 32.7548 141.242 32.5666C141.257 32.5089 141.257 32.4483 141.242 32.3906C141.242 31.1106 141.242 29.7857 141.242 28.4865C141.148 28.0386 141.4 27.5904 141.831 27.4369C142.336 27.1884 142.941 27.2666 143.367 27.6353C143.559 27.8889 143.661 28.2001 143.655 28.5185C143.655 29.7025 143.655 30.8866 143.655 32.0706C143.655 32.8706 143.597 32.7938 144.359 32.7938C145.594 32.7938 146.829 32.7938 148.071 32.7938C148.961 32.7938 149.133 33.2866 149.153 33.9075C149.219 34.43 148.849 34.9074 148.327 34.9739C148.238 34.9853 148.147 34.9839 148.058 34.9699H143.7L143.706 34.9634Z" fill="white"/>
<path d="M104.335 41.6324C104.335 44.3909 104.412 47.1558 104.335 49.9079C104.309 52.5174 102.639 54.8263 100.168 55.6681C99.739 55.8775 99.2241 55.79 98.8882 55.4504C98.5113 55.1274 98.3759 54.6036 98.549 54.1384C98.6721 53.8615 98.8868 53.6355 99.1571 53.4984C100.956 52.761 102.084 50.9583 101.96 49.0183C101.96 43.8405 101.96 38.6564 101.96 33.4786C101.865 33.0451 102.068 32.6006 102.46 32.3905C102.952 32.1582 103.529 32.187 103.996 32.4673C104.257 32.6505 104.395 32.9636 104.354 33.2802C104.354 36.0664 104.354 38.8505 104.354 41.6324H104.335Z" fill="white"/>
<path d="M101.958 29.2032C101.958 28.9664 101.958 28.736 101.958 28.4992C101.94 27.8844 102.423 27.3713 103.038 27.3531C103.064 27.3523 103.09 27.3524 103.116 27.3535C103.741 27.2332 104.345 27.642 104.466 28.2667C104.477 28.3286 104.484 28.3914 104.486 28.4544C104.486 28.9471 104.486 29.44 104.486 29.9328C104.451 30.5928 103.888 31.0996 103.227 31.0646C103.205 31.0634 103.183 31.0616 103.161 31.0592C102.533 31.0947 101.995 30.6142 101.96 29.986C101.958 29.9577 101.957 29.9292 101.958 29.9008C101.952 29.6704 101.958 29.4336 101.958 29.2032Z" fill="white"/>
<path d="M41.5655 37.3123L42.6279 34.8226C43.46 32.9026 44.2984 30.9825 45.124 29.0625C45.1854 28.8471 45.3946 28.7085 45.6168 28.7361C46.4104 28.7361 47.204 28.7361 47.9977 28.7361C48.2335 28.7077 48.4554 28.8538 48.5225 29.0817C50.2292 32.9218 51.9509 36.7726 53.6875 40.6341C54.6219 42.7206 55.5563 44.8049 56.4908 46.8871C56.6187 47.0702 56.5791 47.3217 56.4011 47.4567C55.7995 48.0263 55.2235 48.6279 54.6027 49.2488L52.9642 47.9687C49.5462 45.3106 45.9798 42.849 42.2823 40.5957C40.6317 39.5831 38.8598 38.7831 37.0086 38.2148C36.6357 38.1045 36.2513 38.0379 35.8629 38.0164C35.5161 37.9482 35.1797 38.1742 35.1116 38.521C35.0888 38.6369 35.0985 38.7569 35.1397 38.8676C35.2188 39.2873 35.3433 39.6972 35.511 40.09C36.2414 41.6548 37.1661 43.1213 38.2631 44.455L39.7735 41.1781C40.1191 41.9525 40.4135 42.6694 40.7527 43.3606C40.9926 43.7788 40.9926 44.2928 40.7527 44.711C40.4647 45.2742 40.2279 45.8694 39.9783 46.4583C39.9228 46.662 39.7273 46.795 39.5175 46.7719C38.7239 46.7719 37.9302 46.7719 37.1366 46.7719C36.9895 46.7739 36.8473 46.7188 36.7398 46.6182C35.4161 45.013 34.2962 43.2503 33.4053 41.3701C33.0022 40.5097 32.7842 39.5743 32.7653 38.6244C32.6667 36.9944 33.9081 35.593 35.5382 35.4944C35.6591 35.487 35.7804 35.4872 35.9013 35.4947C37.2922 35.569 38.6534 35.9261 39.9014 36.5444C40.4263 36.7619 40.9639 37.0243 41.5655 37.3123ZM43.6456 38.3427L52.7402 44.4934L46.8456 31.3473H46.7369L43.6456 38.3427Z" fill="white"/>
</svg>
