<svg width="190" height="57" viewBox="0 0 190 57" fill="none" xmlns="http://www.w3.org/2000/svg">
<path d="M182.963 0H7.03704C5.1707 0 3.3808 0.750668 2.0611 2.08686C0.7414 3.42306 0 5.23533 0 7.125V49.875C0 51.7647 0.7414 53.5769 2.0611 54.9131C3.3808 56.2493 5.1707 57 7.03704 57H182.963C184.829 57 186.619 56.2493 187.939 54.9131C189.259 53.5769 190 51.7647 190 49.875V7.125C190 5.23533 189.259 3.42306 187.939 2.08686C186.619 0.750668 184.829 0 182.963 0Z" fill="white" fill-opacity="0.15"/>
<path d="M39.0805 28.2175C39.0416 23.8415 42.6193 21.7125 42.7829 21.6134C40.7567 18.6223 37.6161 18.2136 36.5125 18.181C33.8748 17.8999 31.3162 19.7791 29.9725 19.7791C28.602 19.7791 26.5329 18.2082 24.3028 18.2543C21.4331 18.2991 18.7484 19.9814 17.276 22.5937C14.2374 27.9201 16.5036 35.7476 19.4149 40.053C20.8712 42.1616 22.5729 44.5159 24.8003 44.4331C26.9794 44.3421 27.7934 43.0264 30.4231 43.0264C33.0286 43.0264 33.793 44.4331 36.0646 44.3801C38.4033 44.3421 39.8757 42.262 41.281 40.1344C42.964 37.7176 43.6398 35.3375 43.6667 35.2153C43.6117 35.1963 39.1247 33.4625 39.0805 28.2175Z" fill="white"/>
<path d="M34.7897 15.3487C35.9618 13.8647 36.7637 11.8457 36.5411 9.79688C34.8447 9.87291 32.7233 10.9849 31.5016 12.4363C30.4208 13.7153 29.4553 15.8117 29.7047 17.7832C31.6103 17.9271 33.5668 16.8096 34.7897 15.3487Z" fill="white"/>
<path d="M76.731 43.4337H73.6856L72.0175 38.1262H66.219L64.63 43.4337H61.665L67.4098 25.3647H70.9581L76.731 43.4337ZM71.5146 35.8995L70.006 31.1813C69.8464 30.6993 69.5474 29.5643 69.1062 27.7775H69.0525C68.8769 28.546 68.5939 29.681 68.205 31.1813L66.7232 35.8995H71.5146Z" fill="white"/>
<path d="M91.5044 36.7589C91.5044 38.9748 90.913 40.7263 89.7302 42.0121C88.6709 43.1567 87.3553 43.7283 85.7851 43.7283C84.09 43.7283 82.8724 43.1119 82.1309 41.879H82.0772V48.7424H79.2182V34.6938C79.2182 33.3008 79.182 31.8711 79.1123 30.4047H81.6267L81.7862 32.4698H81.8399C82.7933 30.9138 84.2402 30.1372 86.182 30.1372C87.7 30.1372 88.9672 30.7441 89.981 31.9593C90.9975 33.1758 91.5044 34.7753 91.5044 36.7589ZM88.5917 36.8649C88.5917 35.5967 88.3101 34.5512 87.7442 33.7285C87.126 32.8704 86.296 32.4413 85.2554 32.4413C84.55 32.4413 83.909 32.6803 83.3364 33.1514C82.7625 33.6266 82.387 34.2471 82.2113 35.0156C82.1228 35.374 82.0786 35.6673 82.0786 35.8981V38.0705C82.0786 39.0182 82.3655 39.818 82.9395 40.471C83.5134 41.1241 84.259 41.45 85.1762 41.45C86.2531 41.45 87.0912 41.0291 87.6906 40.19C88.2914 39.3495 88.5917 38.2416 88.5917 36.8649Z" fill="white"/>
<path d="M106.305 36.7589C106.305 38.9748 105.713 40.7263 104.529 42.0121C103.471 43.1567 102.156 43.7283 100.585 43.7283C98.8905 43.7283 97.6729 43.1119 96.9326 41.879H96.879V48.7424H94.02V34.6938C94.02 33.3008 93.9838 31.8711 93.9141 30.4047H96.4284L96.588 32.4698H96.6416C97.5937 30.9138 99.0407 30.1372 100.984 30.1372C102.5 30.1372 103.768 30.7441 104.784 31.9593C105.797 33.1758 106.305 34.7753 106.305 36.7589ZM103.392 36.8649C103.392 35.5967 103.109 34.5512 102.543 33.7285C101.925 32.8704 101.098 32.4413 100.056 32.4413C99.3491 32.4413 98.7094 32.6803 98.1355 33.1514C97.5616 33.6266 97.1874 34.2471 97.0117 35.0156C96.9246 35.374 96.879 35.6673 96.879 35.8981V38.0705C96.879 39.0182 97.166 39.818 97.7372 40.471C98.3112 41.1228 99.0568 41.45 99.9767 41.45C101.053 41.45 101.892 41.0291 102.491 40.19C103.092 39.3495 103.392 38.2416 103.392 36.8649Z" fill="white"/>
<path d="M122.853 38.3667C122.853 39.9036 122.326 41.1541 121.268 42.1195C120.106 43.1744 118.487 43.7013 116.407 43.7013C114.487 43.7013 112.948 43.3265 111.782 42.5757L112.445 40.163C113.7 40.9314 115.077 41.317 116.578 41.317C117.654 41.317 118.493 41.0699 119.095 40.5784C119.694 40.0869 119.993 39.4271 119.993 38.6043C119.993 37.8711 119.746 37.2533 119.252 36.7523C118.759 36.2513 117.937 35.7856 116.789 35.3552C113.665 34.1753 112.104 32.4469 112.104 30.174C112.104 28.6886 112.651 27.4707 113.747 26.523C114.838 25.574 116.295 25.1001 118.116 25.1001C119.74 25.1001 121.089 25.3866 122.165 25.9582L121.451 28.318C120.445 27.764 119.308 27.487 118.035 27.487C117.03 27.487 116.244 27.7382 115.68 28.2379C115.204 28.6846 114.966 29.229 114.966 29.8739C114.966 30.5881 115.238 31.1787 115.785 31.6431C116.261 32.0721 117.126 32.5365 118.381 33.0375C119.917 33.6634 121.044 34.3952 121.77 35.2343C122.493 36.0707 122.853 37.1175 122.853 38.3667Z" fill="white"/>
<path d="M132.305 32.5772H129.154V38.903C129.154 40.5119 129.709 41.3157 130.822 41.3157C131.333 41.3157 131.757 41.2709 132.092 41.1813L132.171 43.3795C131.608 43.5926 130.867 43.6999 129.948 43.6999C128.819 43.6999 127.937 43.351 127.3 42.6544C126.665 41.9566 126.346 40.7862 126.346 39.1419V32.5745H124.469V30.4021H126.346V28.0165L129.154 27.1584V30.4021H132.305V32.5772Z" fill="white"/>
<path d="M146.524 36.8123C146.524 38.8149 145.958 40.4592 144.829 41.745C143.645 43.0688 142.073 43.7286 140.114 43.7286C138.226 43.7286 136.723 43.0946 135.602 41.8264C134.48 40.5583 133.92 38.9575 133.92 37.0281C133.92 35.0092 134.497 33.3554 135.654 32.0696C136.808 30.7825 138.367 30.1389 140.326 30.1389C142.214 30.1389 143.733 30.773 144.88 32.0425C145.977 33.274 146.524 34.8639 146.524 36.8123ZM143.558 36.9059C143.558 35.7043 143.304 34.6738 142.791 33.8143C142.191 32.7743 141.334 32.2556 140.224 32.2556C139.075 32.2556 138.202 32.7757 137.602 33.8143C137.089 34.6752 136.835 35.722 136.835 36.9602C136.835 38.1619 137.089 39.1924 137.602 40.0505C138.22 41.0905 139.084 41.6092 140.198 41.6092C141.29 41.6092 142.147 41.0797 142.765 40.0233C143.292 39.1476 143.558 38.1062 143.558 36.9059Z" fill="white"/>
<path d="M155.817 32.9505C155.534 32.8975 155.233 32.8704 154.916 32.8704C153.91 32.8704 153.133 33.2546 152.585 34.0244C152.109 34.7033 151.871 35.5614 151.871 36.5974V43.4336H149.013L149.04 34.5078C149.04 33.0061 149.004 31.6389 148.933 30.406H151.423L151.527 32.8989H151.607C151.908 32.0421 152.384 31.3524 153.036 30.8351C153.673 30.3694 154.361 30.1372 155.102 30.1372C155.367 30.1372 155.605 30.1562 155.817 30.1902V32.9505Z" fill="white"/>
<path d="M168.603 36.303C168.603 36.8217 168.569 37.2589 168.498 37.616H159.921C159.955 38.9031 160.369 39.8875 161.166 40.5663C161.889 41.1733 162.823 41.4774 163.971 41.4774C165.241 41.4774 166.4 41.2724 167.442 40.861L167.89 42.8704C166.672 43.4081 165.234 43.6756 163.576 43.6756C161.58 43.6756 160.014 43.0809 158.874 41.8929C157.737 40.7048 157.167 39.1095 157.167 37.1082C157.167 35.1435 157.697 33.5074 158.757 32.2026C159.868 30.8096 161.368 30.113 163.256 30.113C165.111 30.113 166.515 30.8096 167.468 32.2026C168.223 33.3092 168.603 34.6778 168.603 36.303ZM165.877 35.5522C165.895 34.6941 165.709 33.9527 165.322 33.3268C164.827 32.5217 164.066 32.1198 163.043 32.1198C162.109 32.1198 161.348 32.5122 160.768 33.2997C160.292 33.9256 160.009 34.6764 159.921 35.5508H165.877V35.5522Z" fill="white"/>
<path d="M70.5697 14.2491C70.5697 15.8472 70.0964 17.0502 69.151 17.858C68.2753 18.6035 67.0309 18.9768 65.419 18.9768C64.6198 18.9768 63.9359 18.9415 63.3633 18.8709V10.1392C64.1102 10.017 64.9148 9.95459 65.7838 9.95459C67.3192 9.95459 68.4765 10.2927 69.2569 10.9688C70.1312 11.7332 70.5697 12.8262 70.5697 14.2491ZM69.088 14.2885C69.088 13.2526 68.8171 12.4583 68.2753 11.9043C67.7336 11.3517 66.9424 11.0747 65.9004 11.0747C65.4579 11.0747 65.0811 11.1046 64.7686 11.1671V17.8051C64.9416 17.8322 65.2581 17.8445 65.7181 17.8445C66.7935 17.8445 67.6236 17.5417 68.2083 16.9361C68.7929 16.3306 69.088 15.448 69.088 14.2885Z" fill="white"/>
<path d="M78.4267 15.6448C78.4267 16.6292 78.1491 17.4357 77.5939 18.0684C77.0119 18.7187 76.2409 19.0432 75.278 19.0432C74.3501 19.0432 73.6112 18.7323 73.0601 18.1077C72.5103 17.4845 72.2354 16.6984 72.2354 15.7507C72.2354 14.7595 72.5183 13.9462 73.0869 13.3149C73.6555 12.6835 74.4198 12.3672 75.3826 12.3672C76.3106 12.3672 77.0562 12.6781 77.6207 13.3013C78.1571 13.9069 78.4267 14.6889 78.4267 15.6448ZM76.969 15.691C76.969 15.1003 76.843 14.5939 76.5922 14.1716C76.2972 13.6611 75.8775 13.4059 75.3317 13.4059C74.7671 13.4059 74.338 13.6611 74.043 14.1716C73.7909 14.5939 73.6662 15.1085 73.6662 15.7168C73.6662 16.3074 73.7922 16.8138 74.043 17.2361C74.3474 17.7466 74.7712 18.0018 75.3183 18.0018C75.8547 18.0018 76.2757 17.7425 76.5788 17.2225C76.839 16.7921 76.969 16.2816 76.969 15.691Z" fill="white"/>
<path d="M88.9617 12.4976L86.9837 18.898H85.6964L84.877 16.1187C84.6692 15.4249 84.5002 14.7351 84.3688 14.0508H84.3433C84.2213 14.7541 84.0523 15.4425 83.8351 16.1187L82.9648 18.898H81.6627L79.8027 12.4976H81.247L81.9617 15.5403C82.1347 16.2599 82.2769 16.9455 82.3908 17.5945H82.4163C82.5209 17.0596 82.6939 16.378 82.938 15.5539L83.8351 12.4989H84.9803L85.8399 15.4887C86.0477 16.2178 86.2167 16.9197 86.3467 17.5959H86.3856C86.4808 16.9374 86.6243 16.2354 86.8148 15.4887L87.5818 12.4989H88.9617V12.4976Z" fill="white"/>
<path d="M96.247 18.8979H94.8417V15.232C94.8417 14.1023 94.4179 13.5375 93.5677 13.5375C93.1507 13.5375 92.8141 13.6923 92.5526 14.0032C92.2938 14.3141 92.1624 14.6807 92.1624 15.1003V18.8965H90.757V14.3263C90.757 13.7642 90.7396 13.1546 90.7061 12.4947H91.9411L92.0068 13.4954H92.0457C92.2093 13.1845 92.4534 12.9279 92.7739 12.7228C93.1547 12.4839 93.5811 12.363 94.0478 12.363C94.6378 12.363 95.1286 12.5558 95.5189 12.9428C96.0043 13.4167 96.247 14.124 96.247 15.0636V18.8979Z" fill="white"/>
<path d="M100.123 18.898H98.7188V9.56079H100.123V18.898Z" fill="white"/>
<path d="M108.396 15.6448C108.396 16.6292 108.119 17.4357 107.564 18.0684C106.982 18.7187 106.209 19.0432 105.248 19.0432C104.318 19.0432 103.58 18.7323 103.03 18.1077C102.48 17.4845 102.205 16.6984 102.205 15.7507C102.205 14.7595 102.488 13.9462 103.057 13.3149C103.625 12.6835 104.39 12.3672 105.351 12.3672C106.28 12.3672 107.025 12.6781 107.59 13.3013C108.127 13.9069 108.396 14.6889 108.396 15.6448ZM106.937 15.691C106.937 15.1003 106.811 14.5939 106.561 14.1716C106.267 13.6611 105.846 13.4059 105.301 13.4059C104.736 13.4059 104.306 13.6611 104.013 14.1716C103.761 14.5939 103.636 15.1085 103.636 15.7168C103.636 16.3074 103.762 16.8138 104.013 17.2361C104.317 17.7466 104.741 18.0018 105.288 18.0018C105.824 18.0018 106.244 17.7425 106.547 17.2225C106.809 16.7921 106.937 16.2816 106.937 15.691Z" fill="white"/>
<path d="M115.197 18.898H113.936L113.831 18.1607H113.792C113.36 18.7486 112.745 19.0432 111.946 19.0432C111.349 19.0432 110.866 18.8491 110.503 18.4635C110.173 18.1132 110.008 17.6773 110.008 17.16C110.008 16.378 110.33 15.7819 110.977 15.3692C111.624 14.9564 112.533 14.7541 113.704 14.7636V14.6441C113.704 13.801 113.266 13.3801 112.391 13.3801C111.767 13.3801 111.217 13.5389 110.743 13.8539L110.457 12.9198C111.044 12.5518 111.77 12.3672 112.625 12.3672C114.278 12.3672 115.106 13.2497 115.106 15.0148V17.3718C115.106 18.0113 115.137 18.5205 115.197 18.898ZM113.738 16.6984V15.7113C112.188 15.6842 111.413 16.1146 111.413 17.0012C111.413 17.3352 111.502 17.585 111.683 17.752C111.864 17.919 112.094 18.0018 112.369 18.0018C112.678 18.0018 112.966 17.9027 113.229 17.7059C113.493 17.5076 113.655 17.2564 113.716 16.9482C113.73 16.879 113.738 16.7948 113.738 16.6984Z" fill="white"/>
<path d="M123.183 18.898H121.936L121.87 17.8702H121.831C121.433 18.6523 120.754 19.0433 119.801 19.0433C119.039 19.0433 118.405 18.7405 117.902 18.135C117.399 17.5294 117.148 16.7433 117.148 15.7779C117.148 14.742 117.421 13.9029 117.968 13.262C118.497 12.6646 119.147 12.3659 119.919 12.3659C120.768 12.3659 121.362 12.6551 121.7 13.2349H121.727V9.56079H123.133V17.1737C123.133 17.7969 123.149 18.3712 123.183 18.898ZM121.727 16.1988V15.1316C121.727 14.947 121.713 14.7976 121.688 14.6836C121.609 14.3414 121.438 14.0536 121.179 13.8214C120.918 13.5892 120.603 13.4725 120.239 13.4725C119.715 13.4725 119.305 13.6829 119.003 14.1052C118.704 14.5274 118.552 15.0665 118.552 15.725C118.552 16.3577 118.696 16.8709 118.984 17.266C119.289 17.6869 119.699 17.8974 120.213 17.8974C120.674 17.8974 121.043 17.7222 121.323 17.3706C121.594 17.0461 121.727 16.655 121.727 16.1988Z" fill="white"/>
<path d="M135.203 15.6448C135.203 16.6292 134.925 17.4357 134.37 18.0684C133.788 18.7187 133.019 19.0432 132.054 19.0432C131.128 19.0432 130.389 18.7323 129.836 18.1077C129.287 17.4845 129.012 16.6984 129.012 15.7507C129.012 14.7595 129.295 13.9462 129.863 13.3149C130.432 12.6835 131.196 12.3672 132.16 12.3672C133.087 12.3672 133.834 12.6781 134.397 13.3013C134.934 13.9069 135.203 14.6889 135.203 15.6448ZM133.747 15.691C133.747 15.1003 133.621 14.5939 133.37 14.1716C133.074 13.6611 132.655 13.4059 132.108 13.4059C131.545 13.4059 131.116 13.6611 130.819 14.1716C130.567 14.5939 130.443 15.1085 130.443 15.7168C130.443 16.3074 130.569 16.8138 130.819 17.2361C131.124 17.7466 131.548 18.0018 132.095 18.0018C132.631 18.0018 133.053 17.7425 133.357 17.2225C133.615 16.7921 133.747 16.2816 133.747 15.691Z" fill="white"/>
<path d="M142.758 18.8979H141.354V15.232C141.354 14.1023 140.931 13.5375 140.079 13.5375C139.662 13.5375 139.325 13.6923 139.065 14.0032C138.805 14.3141 138.675 14.6807 138.675 15.1003V18.8965H137.268V14.3263C137.268 13.7642 137.252 13.1546 137.219 12.4947H138.452L138.518 13.4954H138.557C138.722 13.1845 138.966 12.9279 139.285 12.7228C139.667 12.4839 140.092 12.363 140.56 12.363C141.149 12.363 141.64 12.5558 142.03 12.9428C142.517 13.4167 142.758 14.124 142.758 15.0636V18.8979Z" fill="white"/>
<path d="M152.217 13.5634H150.67V16.6726C150.67 17.4629 150.945 17.858 151.489 17.858C151.741 17.858 151.95 17.8362 152.115 17.7914L152.151 18.8708C151.874 18.9767 151.509 19.0297 151.06 19.0297C150.505 19.0297 150.073 18.8586 149.76 18.5165C149.447 18.1743 149.291 17.5986 149.291 16.7908V13.5634H148.367V12.4976H149.291V11.3245L150.668 10.9036V12.4962H152.216V13.5634H152.217Z" fill="white"/>
<path d="M159.657 18.898H158.25V15.2593C158.25 14.112 157.827 13.5376 156.978 13.5376C156.326 13.5376 155.881 13.8703 155.637 14.5356C155.595 14.6754 155.571 14.8465 155.571 15.0475V18.8967H154.167V9.56079H155.571V13.4182H155.598C156.04 12.7162 156.675 12.3659 157.497 12.3659C158.079 12.3659 158.56 12.5587 158.942 12.9457C159.418 13.4277 159.657 14.1446 159.657 15.0923V18.898Z" fill="white"/>
<path d="M167.331 15.395C167.331 15.6502 167.312 15.8648 167.279 16.0399H163.064C163.083 16.6726 163.284 17.1546 163.674 17.4886C164.031 17.7873 164.491 17.9367 165.054 17.9367C165.678 17.9367 166.246 17.8362 166.758 17.6339L166.978 18.6223C166.379 18.8858 165.674 19.0175 164.857 19.0175C163.878 19.0175 163.107 18.7255 162.549 18.1417C161.989 17.5579 161.711 16.7745 161.711 15.7914C161.711 14.8261 161.97 14.0223 162.491 13.3814C163.036 12.6971 163.772 12.355 164.701 12.355C165.611 12.355 166.301 12.6971 166.768 13.3814C167.145 13.9245 167.331 14.5966 167.331 15.395ZM165.99 15.027C166.001 14.6048 165.908 14.2409 165.718 13.934C165.474 13.5389 165.102 13.3407 164.599 13.3407C164.141 13.3407 163.767 13.5335 163.481 13.9205C163.248 14.2287 163.11 14.5966 163.064 15.027H165.99Z" fill="white"/>
</svg>
