<svg width="17" height="16" viewBox="0 0 17 16" fill="none" xmlns="http://www.w3.org/2000/svg">
<g clip-path="url(#clip0)">
<path d="M11.984 0C11.131 0.0589997 10.134 0.604996 9.55304 1.31599C9.02305 1.96099 8.58705 2.91898 8.75705 3.84998C9.68904 3.87898 10.652 3.31998 11.21 2.59698C11.732 1.92399 12.127 0.971994 11.984 0Z" fill="black"/>
<path d="M15.3549 5.36799C14.5359 4.34099 13.3849 3.745 12.2979 3.745C10.8629 3.745 10.2559 4.43199 9.25895 4.43199C8.23096 4.43199 7.44996 3.747 6.20897 3.747C4.98998 3.747 3.69198 4.49199 2.86899 5.76598C1.71199 7.55997 1.90999 10.933 3.78498 13.8059C4.45598 14.8339 5.35197 15.9899 6.52397 15.9999C7.56696 16.0099 7.86096 15.3309 9.27395 15.3239C10.6869 15.3159 10.9549 16.0089 11.9959 15.9979C13.1689 15.9889 14.1139 14.7079 14.7849 13.6799C15.2659 12.9429 15.4449 12.5719 15.8179 11.7399C13.1049 10.707 12.6699 6.84898 15.3549 5.36799Z" fill="black"/>
</g>
<defs>
<clipPath id="clip0">
<rect width="16" height="16" fill="white" transform="translate(0.984375)"/>
</clipPath>
</defs>
</svg>
