<svg width="143" height="143" viewBox="0 0 143 143" fill="none" xmlns="http://www.w3.org/2000/svg">
<rect opacity="0.2" width="143" height="143" rx="20" fill="white" fill-opacity="0.9"/>
<path d="M32.625 115.859C32.7344 117.898 34.4219 119.188 36.9219 119.188C39.5938 119.188 41.2734 117.867 41.2734 115.758C41.2734 114.109 40.3125 113.18 38 112.633L36.7578 112.328C35.3047 111.969 34.7109 111.5 34.7109 110.703C34.7109 109.703 35.6406 109.016 37 109.016C38.3594 109.016 39.2891 109.695 39.3906 110.82H41.0938C41.0391 108.875 39.4062 107.539 37.0234 107.539C34.6172 107.539 32.9219 108.875 32.9219 110.82C32.9219 112.391 33.8828 113.359 35.9531 113.859L37.4141 114.211C38.875 114.57 39.4922 115.094 39.4922 115.969C39.4922 116.977 38.4688 117.711 37.0469 117.711C35.5625 117.711 34.4766 116.977 34.3516 115.859H32.625ZM46.0781 111.992C47.2578 111.992 48.0547 112.875 48.0938 114.133H43.9844C44.0703 112.891 44.8984 111.992 46.0781 111.992ZM48.0859 116.586C47.8594 117.305 47.1484 117.789 46.1875 117.789C44.8359 117.789 43.9766 116.844 43.9766 115.414V115.312H49.7812V114.734C49.7812 112.242 48.3594 110.633 46.0781 110.633C43.7578 110.633 42.2734 112.352 42.2734 114.93C42.2734 117.523 43.7344 119.156 46.1484 119.156C48.0312 119.156 49.4531 118.086 49.6875 116.586H48.0859ZM53.9688 117.805C53.0625 117.805 52.4688 117.336 52.4688 116.617C52.4688 115.914 53.0391 115.469 54.0469 115.398L56.0703 115.273V115.922C56.0703 116.992 55.1484 117.805 53.9688 117.805ZM53.5 119.141C54.5781 119.141 55.6172 118.562 56.0938 117.648H56.1328V119H57.75V113.336C57.75 111.688 56.4766 110.633 54.4844 110.633C52.4531 110.633 51.1875 111.727 51.0938 113.211H52.6875C52.8359 112.477 53.4453 112.008 54.4219 112.008C55.4531 112.008 56.0703 112.555 56.0703 113.469V114.102L53.8203 114.234C51.8672 114.344 50.7656 115.227 50.7656 116.664C50.7656 118.141 51.8906 119.141 53.5 119.141ZM59.3906 119H61.0781V114.078C61.0781 112.914 61.75 112.188 62.8359 112.188C63.1641 112.188 63.4609 112.227 63.5938 112.281V110.711C63.4688 110.688 63.2578 110.648 63.0156 110.648C62.0469 110.648 61.3125 111.219 61.0391 112.18H61V110.781H59.3906V119ZM71.3359 113.609C71.1875 111.992 69.8984 110.633 67.7812 110.633C65.4453 110.633 63.9141 112.281 63.9141 114.891C63.9141 117.547 65.4453 119.156 67.7969 119.156C69.7734 119.156 71.1719 117.969 71.3516 116.219H69.7266C69.5312 117.172 68.8516 117.742 67.8125 117.742C66.5 117.742 65.6328 116.695 65.6328 114.891C65.6328 113.125 66.4922 112.039 67.7969 112.039C68.8984 112.039 69.5547 112.734 69.7266 113.609H71.3359ZM72.6094 119H74.2969V114.25C74.2969 112.953 75.0625 112.094 76.3125 112.094C77.5 112.094 78.1094 112.82 78.1094 114.031V119H79.8047V113.703C79.8047 111.844 78.7266 110.641 76.9219 110.641C75.6719 110.641 74.7734 111.195 74.3203 112.156H74.2812V107.727H72.6094V119ZM92.2344 119H94.0859L90.0156 107.727H88.125L84.0547 119H85.875L86.9062 115.953H91.2031L92.2344 119ZM89.0312 109.602H89.0781L90.7578 114.547H87.3516L89.0312 109.602ZM97.9922 119.141C99.1875 119.141 100.125 118.539 100.609 117.602H100.641V119H102.281V107.727H100.586V112.148H100.555C100.094 111.242 99.1562 110.648 97.9766 110.648C95.9141 110.648 94.5391 112.297 94.5391 114.891C94.5391 117.484 95.9141 119.141 97.9922 119.141ZM98.4375 112.07C99.7344 112.07 100.602 113.188 100.602 114.891C100.602 116.609 99.7344 117.711 98.4375 117.711C97.1016 117.711 96.2656 116.625 96.2656 114.891C96.2656 113.164 97.1016 112.07 98.4375 112.07ZM103.867 113.109C103.867 114.258 104.617 115.031 106.102 115.391L107.57 115.75C108.43 115.969 108.742 116.258 108.742 116.781C108.742 117.445 108.117 117.867 107.102 117.867C106.07 117.867 105.461 117.43 105.328 116.641H103.656C103.789 118.148 105.078 119.156 107.023 119.156C109.039 119.156 110.438 118.125 110.438 116.625C110.438 115.414 109.812 114.789 108.156 114.391L106.773 114.07C105.922 113.859 105.516 113.516 105.516 113.008C105.516 112.359 106.125 111.914 107.039 111.914C107.984 111.914 108.586 112.375 108.664 113.117H110.25C110.195 111.656 108.914 110.633 107.086 110.633C105.164 110.633 103.867 111.641 103.867 113.109Z" fill="white"/>
<g clip-path="url(#clip0)">
<path d="M82.6199 27C79.3145 27.2286 75.4512 29.3444 73.1998 32.0995C71.1461 34.5988 69.4566 38.3111 70.1153 41.9187C73.7268 42.031 77.4584 39.8649 79.6206 37.0633C81.6434 34.4555 83.174 30.7665 82.6199 27Z" fill="white"/>
<path d="M95.6833 47.8009C92.5097 43.8213 88.0496 41.5118 83.8375 41.5118C78.2769 41.5118 75.9248 44.174 72.0614 44.174C68.0779 44.174 65.0516 41.5196 60.2427 41.5196C55.5191 41.5196 50.4894 44.4064 47.3003 49.3432C42.817 56.2949 43.5842 69.3652 50.8498 80.498C53.4499 84.4815 56.9219 88.9609 61.4634 88.9997C65.505 89.0384 66.6442 86.4073 72.1195 86.3802C77.5949 86.3492 78.6334 89.0346 82.6672 88.9919C87.2126 88.9571 90.8744 83.9932 93.4745 80.0097C95.3384 77.1539 96.032 75.7163 97.4774 72.4923C86.9646 68.4894 85.279 53.5398 95.6833 47.8009Z" fill="white"/>
</g>
<defs>
<clipPath id="clip0">
<rect width="62" height="62" fill="white" transform="translate(40 27)"/>
</clipPath>
</defs>
</svg>
