<svg width="78" height="89" viewBox="0 0 78 89" fill="none" xmlns="http://www.w3.org/2000/svg">
<g clip-path="url(#clip0)">
<path d="M76.1147 70.8292C74.5718 72.943 72.2857 74.1657 69.8747 74.1667H8.12475C5.71377 74.1657 3.4277 72.943 1.88477 70.8292L31.6873 42.4976L34.7748 44.908C37.3182 46.9105 40.6815 46.9105 43.2248 44.908L46.3124 42.4976L76.1147 70.8292Z" fill="#AABDFF" fill-opacity="0.63"/>
<path d="M76.5694 18.8758L46.312 42.4978L43.2245 44.9083C40.6811 46.9108 37.3178 46.9108 34.7745 44.9083L31.6869 42.4978L1.42969 18.8386C2.95221 16.3336 5.45293 14.8376 8.12472 14.8336H69.8745C72.5584 14.8175 75.0714 16.3346 76.5694 18.8758Z" fill="#AABDFF" fill-opacity="0.87"/>
<path d="M31.6876 42.4974L1.88509 70.8291C0.665276 69.1655 -0.00214073 67.0648 0.000144423 64.8958V24.1041C-0.0097579 22.2228 0.489776 20.3837 1.43019 18.8384L31.6876 42.4974Z" fill="#AABDFF" fill-opacity="0.35"/>
<path d="M77.9999 24.1047V64.8964C78.0021 67.0654 77.3348 69.1661 76.115 70.8296L46.3125 42.498L76.5699 18.876C77.5056 20.4102 78.0048 22.2355 77.9999 24.1047Z" fill="#AABDFF" fill-opacity="0.35"/>
</g>
<defs>
<clipPath id="clip0">
<rect width="78" height="89" fill="white"/>
</clipPath>
</defs>
</svg>
