<svg width="17" height="16" viewBox="0 0 17 16" fill="none" xmlns="http://www.w3.org/2000/svg">
<g clip-path="url(#clip0)">
<path d="M4.47703 0.255945C3.85106 -0.0900358 3.11611 -0.0820363 2.49414 0.260944L9.78373 6.98556L12.2326 4.5367L4.47703 0.255945Z" fill="black"/>
<path d="M1.76534 0.948853C1.58735 1.23984 1.48535 1.57282 1.48535 1.9258V14.0711C1.48535 14.4131 1.57835 14.7391 1.74634 15.0241L9.07692 7.69347L1.76534 0.948853Z" fill="black"/>
<path d="M15.4793 6.32854L13.1434 5.03961L10.5186 7.66347L13.7354 10.6303L15.4803 9.66736C16.1082 9.31937 16.4842 8.69541 16.4842 7.99745C16.4832 7.29949 16.1082 6.67552 15.4793 6.32854Z" fill="black"/>
<path d="M9.81152 8.3714L2.46094 15.722C2.77992 15.904 3.1299 16 3.48188 16C3.82186 16 4.16384 15.914 4.47682 15.741L12.8134 11.1402L9.81152 8.3714Z" fill="black"/>
</g>
<defs>
<clipPath id="clip0">
<rect width="16" height="16" fill="white" transform="translate(0.984375)"/>
</clipPath>
</defs>
</svg>
