<svg width="190" height="56" viewBox="0 0 190 56" fill="none" xmlns="http://www.w3.org/2000/svg">
<path d="M182.963 0H7.03704C5.1707 0 3.3808 0.737498 2.0611 2.05025C0.7414 3.36301 0 5.14348 0 7V49C0 50.8565 0.7414 52.637 2.0611 53.9497C3.3808 55.2625 5.1707 56 7.03704 56H182.963C184.829 56 186.619 55.2625 187.939 53.9497C189.259 52.637 190 50.8565 190 49V7C190 5.14348 189.259 3.36301 187.939 2.05025C186.619 0.737498 184.829 0 182.963 0Z"/>
<path d="M95.9001 30.4501C94.7183 30.4556 93.5647 30.8093 92.5847 31.4664C91.6048 32.1236 90.8425 33.0548 90.3941 34.1425C89.9457 35.2302 89.8312 36.4256 90.0652 37.5779C90.2992 38.7303 90.871 39.7879 91.7087 40.6172C92.5463 41.4465 93.6122 42.0104 94.7717 42.2377C95.9312 42.4651 97.1324 42.3456 98.2238 41.8944C99.3151 41.4433 100.248 40.6807 100.904 39.7028C101.56 38.7249 101.91 37.5757 101.91 36.4001C101.921 35.6132 101.773 34.8321 101.475 34.1032C101.177 33.3743 100.734 32.7126 100.173 32.1574C99.6127 31.6022 98.9454 31.165 98.2112 30.8717C97.4771 30.5784 96.6911 30.435 95.9001 30.4501ZM95.9001 40.0121C95.1733 40.0627 94.448 39.8945 93.8185 39.5296C93.189 39.1647 92.6845 38.6199 92.3704 37.9659C92.0563 37.3119 91.9473 36.5791 92.0575 35.8627C92.1676 35.1463 92.4919 34.4794 92.9882 33.9487C93.4844 33.4181 94.1297 33.0482 94.84 32.8872C95.5504 32.7261 96.2931 32.7814 96.9714 33.0458C97.6498 33.3102 98.2326 33.7715 98.6439 34.3697C99.0552 34.9679 99.2761 35.6753 99.2779 36.4001C99.3006 36.8593 99.2306 37.3184 99.0721 37.7503C98.9135 38.1822 98.6697 38.5781 98.3549 38.9147C98.04 39.2514 97.6607 39.5219 97.2391 39.7104C96.8175 39.8988 96.3622 40.0014 95.9001 40.0121ZM82.7972 30.4501C81.6148 30.4529 80.4597 30.8042 79.4779 31.4596C78.4961 32.1151 77.7316 33.0453 77.2811 34.1328C76.8305 35.2203 76.714 36.4162 76.9464 37.5694C77.1788 38.7227 77.7496 39.7816 78.5867 40.6123C79.4238 41.443 80.4896 42.0083 81.6495 42.2368C82.8094 42.4652 84.0113 42.3466 85.1035 41.8958C86.1957 41.4451 87.129 40.6824 87.7856 39.7043C88.4423 38.7261 88.7927 37.5763 88.7927 36.4001C88.8042 35.6132 88.6564 34.8321 88.3581 34.1032C88.0598 33.3743 87.6171 32.7126 87.0564 32.1574C86.4956 31.6022 85.8283 31.165 85.0942 30.8717C84.3601 30.5784 83.5741 30.435 82.7831 30.4501H82.7972ZM82.7972 40.0121C82.07 40.0655 81.3435 39.8999 80.7123 39.5369C80.0811 39.1738 79.5743 38.6301 79.258 37.9766C78.9418 37.3231 78.8306 36.59 78.9391 35.8728C79.0475 35.1555 79.3705 34.4873 79.866 33.9553C80.3615 33.4232 81.0066 33.0518 81.7172 32.8895C82.4279 32.7272 83.1712 32.7815 83.8504 33.0453C84.5296 33.3091 85.1133 33.7701 85.5254 34.3685C85.9375 34.9669 86.1589 35.6748 86.1609 36.4001C86.1836 36.8593 86.1136 37.3184 85.955 37.7503C85.7965 38.1822 85.5526 38.5781 85.2378 38.9147C84.923 39.2514 84.5436 39.5219 84.122 39.7104C83.7004 39.8988 83.2452 40.0014 82.7831 40.0121H82.7972ZM67.189 32.2841V34.8041H73.269C73.1737 35.991 72.6777 37.111 71.8616 37.9821C71.2533 38.5984 70.5221 39.0813 69.7149 39.3995C68.9078 39.7178 68.0425 39.8645 67.175 39.8301C65.3833 39.8301 63.665 39.1221 62.3981 37.8618C61.1311 36.6016 60.4194 34.8923 60.4194 33.1101C60.4194 31.3278 61.1311 29.6186 62.3981 28.3583C63.665 27.0981 65.3833 26.3901 67.175 26.3901C68.8889 26.3623 70.544 27.0118 71.7772 28.1961L73.5646 26.4181C72.7321 25.5795 71.7388 24.9157 70.6437 24.466C69.5485 24.0163 68.3738 23.7899 67.189 23.8001C65.9378 23.7517 64.6897 23.955 63.5194 24.3978C62.3491 24.8407 61.2807 25.5141 60.3782 26.3775C59.4758 27.2409 58.7579 28.2767 58.2675 29.4228C57.7771 30.5688 57.5243 31.8015 57.5243 33.0471C57.5243 34.2926 57.7771 35.5254 58.2675 36.6714C58.7579 37.8175 59.4758 38.8532 60.3782 39.7167C61.2807 40.5801 62.3491 41.2535 63.5194 41.6963C64.6897 42.1392 65.9378 42.3425 67.189 42.2941C68.3937 42.3482 69.5961 42.1451 70.7152 41.6984C71.8344 41.2516 72.8443 40.5716 73.6772 39.7041C75.1517 38.0926 75.9389 35.9742 75.8727 33.7961C75.8773 33.2655 75.8301 32.7357 75.732 32.2141L67.189 32.2841ZM130.959 34.2441C130.592 33.1699 129.905 32.232 128.99 31.5545C128.076 30.877 126.975 30.4918 125.836 30.4501C125.066 30.4486 124.304 30.6042 123.597 30.9072C122.89 31.2103 122.253 31.6544 121.725 32.212C121.198 32.7697 120.791 33.4291 120.529 34.1494C120.268 34.8698 120.158 35.6358 120.206 36.4001C120.189 37.1826 120.331 37.9604 120.622 38.6873C120.914 39.4141 121.35 40.0749 121.905 40.6303C122.459 41.1857 123.12 41.6242 123.849 41.9197C124.578 42.2152 125.359 42.3616 126.145 42.3501C127.13 42.3554 128.1 42.1177 128.97 41.6584C129.839 41.199 130.581 40.5324 131.128 39.7181L129.087 38.3181C128.782 38.8232 128.351 39.241 127.835 39.5306C127.32 39.8201 126.737 39.9716 126.145 39.9701C125.536 39.9932 124.933 39.8333 124.416 39.5112C123.899 39.1891 123.491 38.7197 123.246 38.1641L131.254 34.8741L130.959 34.2441ZM122.796 36.2321C122.767 35.7991 122.826 35.3647 122.968 34.9545C123.11 34.5443 123.334 34.1665 123.625 33.8431C123.916 33.5198 124.268 33.2574 124.663 33.0715C125.057 32.8855 125.484 32.7797 125.92 32.7601C126.374 32.7303 126.827 32.8339 127.222 33.0579C127.618 33.2819 127.938 33.6165 128.144 34.0201L122.796 36.2321ZM116.293 42.0001H118.925V24.5001H116.293V42.0001ZM111.987 31.7801H111.888C111.492 31.3389 111.006 30.9862 110.462 30.7449C109.919 30.5036 109.331 30.3793 108.736 30.3801C107.198 30.4543 105.747 31.1143 104.685 32.2233C103.623 33.3323 103.031 34.8054 103.031 36.3371C103.031 37.8688 103.623 39.3419 104.685 40.4509C105.747 41.5599 107.198 42.2199 108.736 42.2941C109.332 42.3041 109.923 42.1839 110.468 41.942C111.013 41.7001 111.498 41.3424 111.888 40.8941H111.973V41.7481C111.973 44.0301 110.748 45.2481 108.778 45.2481C108.122 45.2328 107.485 45.0236 106.948 44.6472C106.412 44.2707 106.001 43.744 105.766 43.1341L103.472 44.0861C103.904 45.131 104.64 46.0237 105.585 46.6498C106.53 47.2759 107.642 47.6068 108.778 47.6001C111.86 47.6001 114.408 45.7941 114.408 41.3981V30.8001H111.987V31.7801ZM108.975 40.0121C108.067 39.9325 107.222 39.5175 106.607 38.8489C105.991 38.1803 105.65 37.3067 105.65 36.4001C105.65 35.4935 105.991 34.6198 106.607 33.9513C107.222 33.2827 108.067 32.8677 108.975 32.7881C109.425 32.8111 109.866 32.9234 110.272 33.1185C110.678 33.3137 111.04 33.5876 111.338 33.9242C111.636 34.2608 111.862 34.6533 112.005 35.0785C112.148 35.5037 112.204 35.9531 112.17 36.4001C112.208 36.8491 112.155 37.3011 112.012 37.7289C111.87 38.1567 111.642 38.5514 111.342 38.889C111.042 39.2266 110.677 39.5002 110.267 39.6933C109.858 39.8863 109.414 39.9948 108.961 40.0121H108.975ZM143.288 24.5001H136.996V42.0001H139.628V35.3641H143.302C144.052 35.4177 144.805 35.317 145.514 35.0683C146.223 34.8196 146.873 34.4282 147.424 33.9186C147.974 33.4089 148.413 32.7919 148.714 32.1061C149.014 31.4202 149.169 30.6801 149.169 29.9321C149.169 29.184 149.014 28.444 148.714 27.7581C148.413 27.0723 147.974 26.4553 147.424 25.9456C146.873 25.4359 146.223 25.0446 145.514 24.7959C144.805 24.5472 144.052 24.4465 143.302 24.5001H143.288ZM143.288 32.9001H139.614V26.9361H143.344C144.144 26.9361 144.912 27.2525 145.479 27.8156C146.045 28.3788 146.363 29.1426 146.363 29.9391C146.363 30.7355 146.045 31.4994 145.479 32.0625C144.912 32.6257 144.144 32.9421 143.344 32.9421L143.288 32.9001ZM159.515 30.3801C158.557 30.3231 157.603 30.5458 156.77 31.0209C155.938 31.496 155.263 32.2026 154.828 33.0541L157.165 34.0201C157.395 33.5978 157.744 33.2512 158.169 33.0225C158.593 32.7938 159.076 32.6929 159.557 32.7321C159.891 32.6933 160.23 32.721 160.553 32.8137C160.876 32.9065 161.178 33.0623 161.44 33.2721C161.702 33.4819 161.919 33.7415 162.079 34.0358C162.239 34.3301 162.339 34.6531 162.372 34.9861V35.1681C161.527 34.7229 160.584 34.4921 159.628 34.4961C157.108 34.4961 154.561 35.8961 154.561 38.4301C154.586 38.9704 154.719 39.5003 154.954 39.9884C155.188 40.4765 155.518 40.9129 155.925 41.2718C156.332 41.6307 156.807 41.9049 157.322 42.0781C157.837 42.2513 158.382 42.32 158.924 42.2801C159.587 42.3274 160.25 42.1964 160.844 41.9008C161.439 41.6052 161.942 41.1559 162.302 40.6001H162.386V42.0001H164.919V35.2661C164.919 32.2001 162.583 30.4221 159.585 30.4221L159.515 30.3801ZM159.191 39.9701C158.333 39.9701 157.136 39.5361 157.136 38.4861C157.136 37.0861 158.628 36.6241 159.951 36.6241C160.787 36.6036 161.614 36.8066 162.344 37.2121C162.256 37.9701 161.895 38.6708 161.329 39.1854C160.763 39.6999 160.028 39.9935 159.262 40.0121L159.191 39.9701ZM174.152 30.8001L171.14 38.3881H171.056L167.931 30.8001H165.116L169.803 41.4121L167.129 47.3061H169.873L177.079 30.8001H174.152ZM150.493 42.0001H153.125V24.5001H150.493V42.0001Z" fill="white"/>
<path d="M66.6507 14.4236C66.6746 14.9371 66.5934 15.4501 66.4119 15.9314C66.2305 16.4127 65.9526 16.8523 65.5951 17.2236C65.196 17.636 64.714 17.9601 64.1805 18.1748C63.647 18.3895 63.074 18.4899 62.4989 18.4696C61.6262 18.4628 60.775 18.2 60.0519 17.7141C59.3288 17.2282 58.7659 16.5408 58.4338 15.738C58.1017 14.9353 58.0152 14.0529 58.185 13.2015C58.3548 12.35 58.7734 11.5674 59.3885 10.9516C59.7927 10.5411 60.2773 10.2174 60.8123 10.0007C61.3473 9.78398 61.9213 9.67877 62.4989 9.69157C63.0938 9.6896 63.683 9.8087 64.23 10.0416C64.7392 10.2459 65.1926 10.5673 65.5529 10.9796L64.807 11.7216C64.5261 11.3892 64.1713 11.1264 63.7707 10.9539C63.3702 10.7813 62.9347 10.7039 62.4989 10.7276C62.0592 10.7254 61.6237 10.8116 61.2184 10.981C60.8131 11.1503 60.4463 11.3993 60.1401 11.7131C59.8339 12.0268 59.5945 12.3989 59.4363 12.8069C59.2781 13.2149 59.2044 13.6505 59.2196 14.0876C59.2104 14.7402 59.3957 15.3808 59.7521 15.9288C60.1085 16.4768 60.62 16.9075 61.2222 17.1665C61.8244 17.4256 62.4903 17.5015 63.1358 17.3846C63.7813 17.2676 64.3775 16.9632 64.8492 16.5096C65.2823 16.0427 65.5321 15.4365 65.5529 14.8016H62.4989V13.7936H66.5944C66.6319 14.0015 66.6508 14.2123 66.6507 14.4236ZM73.0966 10.9236H69.2966V13.5836H72.7588V14.5916H69.2966V17.2516H73.0966V18.2876H68.1707V9.88757H73.0966V10.9236ZM77.7129 18.2876H76.6292V10.9236H74.2648V9.88757H80.1337V10.9236H77.7129V18.2876ZM84.2714 18.2876V9.88757H85.3551V18.2876H84.2714ZM90.1685 18.2876H89.0848V10.9236H86.7203V9.88757H92.5189V10.9236H90.1685V18.2876ZM103.511 17.1956C102.688 18.0095 101.575 18.4663 100.414 18.4663C99.2541 18.4663 98.1409 18.0095 97.3181 17.1956C96.5184 16.3535 96.0728 15.239 96.0728 14.0806C96.0728 12.9222 96.5184 11.8076 97.3181 10.9656C97.7237 10.5592 98.206 10.2367 98.7374 10.0166C99.2688 9.79652 99.8388 9.68321 100.414 9.68321C100.99 9.68321 101.56 9.79652 102.091 10.0166C102.623 10.2367 103.105 10.5592 103.511 10.9656C104.314 11.806 104.761 12.9212 104.761 14.0806C104.761 15.24 104.314 16.3551 103.511 17.1956ZM98.1203 16.4956C98.7296 17.0991 99.5545 17.438 100.414 17.438C101.274 17.438 102.099 17.0991 102.708 16.4956C103.31 15.8362 103.643 14.9778 103.643 14.0876C103.643 13.1973 103.31 12.3389 102.708 11.6796C102.099 11.076 101.274 10.7371 100.414 10.7371C99.5545 10.7371 98.7296 11.076 98.1203 11.6796C97.519 12.3389 97.186 13.1973 97.186 14.0876C97.186 14.9778 97.519 15.8362 98.1203 16.4956ZM106.283 18.2876V9.88757H107.606L111.716 16.4256V9.88757H112.8V18.2876H111.674L107.381 11.4416V18.2876H106.283Z" fill="white"/>
<path fill-rule="evenodd" clip-rule="evenodd" d="M100.414 9.82321C99.8573 9.82321 99.3058 9.93287 98.7915 10.1459C98.2778 10.3586 97.8114 10.6703 97.4192 11.063C96.6449 11.8789 96.2136 12.9585 96.2136 14.0806C96.2136 15.2025 96.6448 16.282 97.4189 17.0978C98.2152 17.8847 99.292 18.3263 100.414 18.3263C101.537 18.3263 102.614 17.8846 103.41 17.0977C104.187 16.2834 104.621 15.2034 104.621 14.0806C104.621 12.9576 104.187 11.8775 103.41 11.0632C103.018 10.6704 102.551 10.3586 102.037 10.1459C101.523 9.93286 100.971 9.82321 100.414 9.82321ZM98.6833 9.88736C99.2319 9.66018 99.8202 9.54321 100.414 9.54321C101.009 9.54321 101.597 9.66018 102.145 9.88736C102.694 10.1145 103.192 10.4475 103.611 10.8669L103.613 10.8691C104.441 11.7356 104.902 12.8853 104.902 14.0806C104.902 15.2759 104.44 16.4255 103.613 17.292L103.61 17.2949C102.761 18.1348 101.612 18.6063 100.414 18.6063C99.2169 18.6063 98.068 18.1348 97.2189 17.2948L97.2158 17.2918C96.3913 16.4237 95.9321 15.2747 95.9321 14.0806C95.9321 12.8864 96.3914 11.7375 97.2158 10.8694L97.2182 10.8669C97.6368 10.4474 98.1348 10.1145 98.6833 9.88736ZM62.4957 9.83153C61.9374 9.81916 61.3826 9.92087 60.8654 10.1304C60.3482 10.3399 59.8798 10.6527 59.489 11.0495L59.4883 11.0502C58.8928 11.6465 58.4875 12.4043 58.323 13.2287C58.1586 14.0532 58.2424 14.9075 58.564 15.6848C58.8855 16.462 59.4305 17.1276 60.1307 17.598C60.8309 18.0685 61.655 18.323 62.5 18.3296L62.5039 18.3296C63.0592 18.3493 63.6125 18.2523 64.1277 18.045C64.6428 17.8377 65.1082 17.5248 65.4936 17.1266C65.8378 16.7691 66.1054 16.3457 66.2802 15.8822C66.4549 15.4187 66.5332 14.9246 66.5101 14.43L66.6507 14.4236L66.51 14.4235C66.51 14.2595 66.4982 14.0958 66.4747 13.9336H62.6396V14.6616H65.6983L65.6936 14.8061C65.6716 15.4746 65.4086 16.113 64.9527 16.6045L64.9472 16.6104C64.4555 17.0832 63.8338 17.4004 63.161 17.5223C62.4881 17.6442 61.7941 17.5651 61.1664 17.295C60.5387 17.025 60.0054 16.576 59.6339 16.0049C59.263 15.4346 59.0699 14.7681 59.0788 14.089C59.0635 13.6343 59.1404 13.1811 59.305 12.7565C59.47 12.3309 59.7197 11.9429 60.0391 11.6156C60.3585 11.2883 60.7411 11.0285 61.1639 10.8519C61.5854 10.6758 62.0382 10.5859 62.4954 10.5876C62.9516 10.5634 63.4073 10.6448 63.8267 10.8254C64.2004 10.9863 64.5361 11.2221 64.8132 11.5174L65.3588 10.9747C65.0284 10.6255 64.6254 10.3512 64.1773 10.1714L64.1746 10.1703C63.6452 9.94495 63.0751 9.82966 62.4993 9.83157L62.4957 9.83153ZM66.7914 14.4204C66.8158 14.9517 66.7315 15.4825 66.5437 15.9805C66.3556 16.4796 66.0674 16.9355 65.6968 17.3204C65.2839 17.747 64.7851 18.0825 64.2333 18.3046C63.682 18.5264 63.09 18.6303 62.4958 18.6095C61.5962 18.6022 60.7187 18.331 59.9731 17.8301C59.2271 17.3287 58.6463 16.6195 58.3037 15.7913C57.961 14.9631 57.8717 14.0527 58.0469 13.1742C58.2221 12.2959 58.6539 11.4885 59.2883 10.8532C59.7059 10.4292 60.2065 10.0949 60.7592 9.87105C61.3115 9.64732 61.904 9.53859 62.5002 9.55156C63.1133 9.54978 63.7203 9.67252 64.284 9.91228C64.8133 10.1249 65.2846 10.4592 65.6591 10.8877L65.7453 10.9862L64.798 11.9285L64.6993 11.8117C64.4324 11.4959 64.0954 11.2462 63.7148 11.0823C63.3343 10.9184 62.9206 10.8449 62.5065 10.8674L62.4982 10.8678C62.0775 10.8658 61.6607 10.948 61.2729 11.11C60.8851 11.2721 60.5341 11.5104 60.2411 11.8106C59.948 12.1108 59.719 12.4668 59.5676 12.8573C59.4163 13.2477 59.3457 13.6645 59.3602 14.0827L59.3605 14.0895C59.3517 14.7145 59.5289 15.328 59.8702 15.8528C60.2115 16.3775 60.7014 16.7899 61.2781 17.038C61.8548 17.2861 62.4924 17.3588 63.1106 17.2468C63.7274 17.1351 64.2972 16.8445 64.7485 16.4117C65.124 16.0056 65.3534 15.4885 65.4033 14.9416H62.3581V13.6536H66.7121L66.7329 13.7688C66.7718 13.9839 66.7913 14.2019 66.7914 14.4204ZM68.03 9.74757H73.2374V11.0636H69.4374V13.4436H72.8996V14.7316H69.4374V17.1116H73.2374V18.4276H68.03V9.74757ZM68.3114 10.0276V18.1476H72.9559V17.3916H69.1559V14.4516H72.6181V13.7236H69.1559V10.7836H72.9559V10.0276H68.3114ZM74.124 9.74757H80.2744V11.0636H77.8537V18.4276H76.4885V11.0636H74.124V9.74757ZM74.4055 10.0276V10.7836H76.77V18.1476H77.5722V10.7836H79.9929V10.0276H74.4055ZM84.1307 9.74757H85.4959V18.4276H84.1307V9.74757ZM84.4122 10.0276V18.1476H85.2144V10.0276H84.4122ZM86.5796 9.74757H92.6596V11.0636H90.3092V18.4276H88.944V11.0636H86.5796V9.74757ZM86.8611 10.0276V10.7836H89.2255V18.1476H90.0277V10.7836H92.3781V10.0276H86.8611ZM106.143 9.74757H107.684L111.575 15.9376V9.74757H112.94V18.4276H111.596L107.522 11.9306V18.4276H106.143V9.74757ZM106.424 10.0276V18.1476H107.24V10.9526L111.752 18.1476H112.659V10.0276H111.857V16.9135L107.528 10.0276H106.424ZM98.021 11.5804C98.6567 10.9507 99.5173 10.5971 100.414 10.5971C101.312 10.5971 102.172 10.9507 102.808 11.5804L102.813 11.5854C103.438 12.2705 103.784 13.1625 103.784 14.0876C103.784 15.0126 103.438 15.9045 102.813 16.5896L102.808 16.5949C102.172 17.2246 101.312 17.578 100.414 17.578C99.5173 17.578 98.6567 17.2245 98.021 16.5948L98.1203 16.4956L98.0161 16.5896C97.3913 15.9045 97.0452 15.0126 97.0452 14.0876C97.0452 13.1625 97.3913 12.2706 98.0161 11.5855L98.021 11.5804ZM98.2222 16.3989C98.8049 16.9747 99.5929 17.298 100.414 17.298C101.236 17.298 102.024 16.9748 102.607 16.3989C103.183 15.7656 103.502 14.9419 103.502 14.0876C103.502 13.2333 103.183 12.4095 102.607 11.7763C102.024 11.2004 101.236 10.8771 100.414 10.8771C99.5929 10.8771 98.8049 11.2004 98.2222 11.7763C97.6459 12.4095 97.3267 13.2333 97.3267 14.0876C97.3267 14.9419 97.6459 15.7656 98.2222 16.3989Z" fill="white"/>
<path d="M17.1223 43.9549L31.7432 28.87L17.1346 13.8121C16.7444 14.0466 16.5029 14.5894 16.5029 15.2999V42.4815C16.5082 43.1921 16.7409 43.6952 17.1223 43.9549Z" fill="white"/>
<path d="M32.2666 28.4534L36.6217 23.9595L18.8863 13.9257C18.5877 13.7467 18.2484 13.6521 17.903 13.6516L32.2649 28.4516L32.2666 28.4534Z" fill="white"/>
<path d="M32.2666 29.2883L17.8593 44.1532C18.2209 44.1595 18.577 44.0621 18.8881 43.8719L36.6585 33.8111L32.2666 29.2883Z" fill="white"/>
<path d="M43.0467 27.6004L37.1449 24.2552L32.6708 28.8718L37.1781 33.5172L43.045 30.181C44.2926 29.4723 44.2925 28.3055 43.0467 27.6004Z" fill="white"/>
</svg>
