<svg width="143" height="143" viewBox="0 0 143 143" fill="none" xmlns="http://www.w3.org/2000/svg">
<rect opacity="0.2" width="143" height="143" rx="20" fill="white" fill-opacity="0.9"/>
<g clip-path="url(#clip0)">
<path d="M59.0307 35.6861C59.758 33.7727 60.758 32.0112 62.2428 30.5838C68.1822 24.7829 78.0004 26.2407 82.0307 33.5297C85.061 39.0572 88.2731 44.4632 91.3943 49.93C96.6065 59.0109 101.879 68.0918 107.031 77.203C111.364 84.8261 106.667 94.4537 98.061 95.7596C92.7883 96.5492 87.8489 94.1196 85.1216 89.3817C80.5458 81.3942 75.9398 73.4067 71.364 65.4495C71.2731 65.2673 71.1519 65.1154 71.0307 64.9636C70.5459 64.5687 70.3337 63.9917 70.0307 63.4754C68.0004 59.8916 65.9095 56.3382 63.8792 52.7849C62.5762 50.4767 61.2125 48.1989 59.9095 45.8907C58.7277 43.8255 58.1822 41.578 58.2428 39.2091C58.3337 37.9943 58.4852 36.7794 59.0307 35.6861Z" fill="white"/>
<path opacity="0.5" d="M59.0299 35.686C58.7571 36.7794 58.5147 37.8727 58.4541 39.0268C58.3632 41.578 58.9996 43.9469 60.2723 46.164C63.6056 51.9041 66.939 57.6745 70.242 63.445C70.545 63.9613 70.7874 64.4776 71.0905 64.9635C69.2723 68.1221 67.4541 71.2503 65.6056 74.4089C63.0602 78.8126 60.5147 83.2468 57.939 87.6505C57.8177 87.6505 57.7874 87.5898 57.7571 87.4987C57.7268 87.2557 57.8177 87.0431 57.8783 86.8002C59.1208 82.2445 58.0905 78.2052 54.9693 74.7429C53.0602 72.6474 50.6359 71.4629 47.848 71.0681C44.2117 70.5518 40.9996 71.4933 38.1208 73.7711C37.6056 74.1659 37.2723 74.7429 36.6662 75.0466C36.545 75.0466 36.4844 74.9859 36.4541 74.8948C37.9086 72.374 39.3329 69.8532 40.7874 67.3325C46.7874 56.8849 52.7874 46.4373 58.8177 36.0201C58.8783 35.8986 58.9693 35.8075 59.0299 35.686Z" fill="white"/>
<path d="M36.5756 74.986C37.1514 74.4697 37.6969 73.923 38.3029 73.4371C45.6666 67.6059 56.7272 71.8274 58.3332 81.0602C58.7272 83.2772 58.515 85.4032 57.8484 87.5292C57.8181 87.7114 57.7878 87.8632 57.7272 88.0455C57.4544 88.5314 57.212 89.0477 56.909 89.5336C54.212 93.9982 50.2423 96.2152 45.0302 95.8811C39.0605 95.456 34.3635 90.9611 33.5453 85.0084C33.1514 82.1232 33.7272 79.4201 35.212 76.9297C35.515 76.3831 35.8787 75.8971 36.212 75.3505C36.3635 75.229 36.3029 74.986 36.5756 74.986Z" fill="white"/>
<path d="M36.5763 74.9859C36.4551 75.1073 36.4551 75.3199 36.243 75.3503C36.2127 75.1377 36.3339 75.0162 36.4551 74.8644L36.5763 74.9859Z" fill="white"/>
<path d="M57.7279 88.0454C57.6067 87.8328 57.7279 87.6809 57.8492 87.5291C57.8795 87.5594 57.9401 87.6202 57.9704 87.6505L57.7279 88.0454Z" fill="#E1C025"/>
<path d="M39.2727 106.086C35.8485 106.086 33 108.849 33 112.251C33 115.653 35.8485 118.386 39.2727 118.386C41.1212 118.386 42.4848 117.778 43.5758 116.655C44.697 115.531 45.0303 113.982 45.0303 112.737C45.0303 112.342 45 111.978 44.9394 111.674H39.2727V113.344H43.303C43.1818 114.286 42.8788 114.984 42.3939 115.47C41.8182 116.047 40.8788 116.715 39.2727 116.715C36.7879 116.715 34.8485 114.711 34.8485 112.251C34.8485 109.791 36.7879 107.786 39.2727 107.786C40.6061 107.786 41.6061 108.303 42.303 109.001L43.4848 107.817C42.4848 106.845 41.1515 106.086 39.2727 106.086ZM49.5455 110.489C47.3939 110.489 45.6061 112.16 45.6061 114.498C45.6061 116.807 47.3636 118.507 49.5455 118.507C51.7273 118.507 53.4848 116.807 53.4848 114.498C53.4848 112.19 51.697 110.489 49.5455 110.489ZM49.5455 116.928C48.3636 116.928 47.3333 115.926 47.3333 114.498C47.3333 113.071 48.3636 112.069 49.5455 112.069C50.7273 112.069 51.7576 113.041 51.7576 114.498C51.7576 115.926 50.7273 116.928 49.5455 116.928ZM58.0909 110.489C55.9091 110.489 54.1515 112.16 54.1515 114.498C54.1515 116.807 55.9091 118.507 58.0909 118.507C60.2424 118.507 62.0303 116.807 62.0303 114.498C62.0303 112.19 60.2727 110.489 58.0909 110.489ZM58.0909 116.928C56.9091 116.928 55.8788 115.926 55.8788 114.498C55.8788 113.071 56.9091 112.069 58.0909 112.069C59.2727 112.069 60.303 113.041 60.303 114.498C60.303 115.926 59.303 116.928 58.0909 116.928ZM66.6061 110.489C64.6364 110.489 62.8485 112.221 62.8485 114.468C62.8485 116.685 64.6364 118.416 66.6061 118.416C67.5455 118.416 68.2727 117.991 68.6667 117.505H68.7273V118.082C68.7273 119.601 67.9394 120.421 66.6364 120.421C65.5758 120.421 64.9394 119.661 64.6667 119.024L63.1515 119.661C63.5758 120.724 64.7273 122 66.6364 122C68.6667 122 70.3636 120.785 70.3636 117.87V110.763H68.7273V111.401H68.6667C68.2727 110.915 67.5455 110.489 66.6061 110.489ZM66.7576 116.867C65.5758 116.867 64.5758 115.865 64.5758 114.468C64.5758 113.071 65.5758 112.038 66.7576 112.038C67.9394 112.038 68.8485 113.071 68.8485 114.468C68.8485 115.865 67.9394 116.867 66.7576 116.867ZM71.6364 106.572H73.3636V118.295H71.6364V106.572ZM78 110.489C75.9394 110.489 74.2121 112.099 74.2121 114.498C74.2121 116.746 75.9091 118.507 78.1818 118.507C80.0303 118.507 81.0909 117.384 81.5151 116.746L80.1515 115.835C79.697 116.503 79.0606 116.928 78.1818 116.928C77.2727 116.928 76.6364 116.533 76.2424 115.713L81.6061 113.496L81.4242 113.041C81.0909 112.16 80.0606 110.489 78 110.489ZM75.9394 114.377C75.8788 112.828 77.1515 112.038 78.0303 112.038C78.7273 112.038 79.3333 112.372 79.5151 112.889L75.9394 114.377Z" fill="white"/>
<path d="M84.6357 118.113L88.6357 107.452H90.1812L94.1812 118.113H92.666L91.6357 115.227H87.1812L86.1509 118.113H84.6357ZM87.6357 113.952H91.1812L89.4539 109.153H89.3933L87.6357 113.952Z" fill="white"/>
<path d="M95.5762 117.232C94.9095 116.473 94.5762 115.561 94.5762 114.468C94.5762 113.405 94.9095 112.494 95.5762 111.704C96.2731 110.945 97.061 110.581 98.0307 110.581C98.5762 110.581 99.061 110.702 99.4853 110.915C99.9398 111.158 100.273 111.431 100.516 111.826H100.576L100.516 110.824V107.452H101.879V118.113H100.576V117.11H100.516C100.273 117.475 99.9398 117.778 99.4853 118.021C99.0307 118.264 98.5459 118.356 98.0307 118.356C97.061 118.356 96.2428 117.991 95.5762 117.232ZM99.8792 116.381C100.334 115.895 100.546 115.258 100.546 114.468C100.546 113.709 100.334 113.071 99.8792 112.585C99.455 112.099 98.9095 111.856 98.2428 111.856C97.5762 111.856 97.0307 112.099 96.6065 112.585C96.1519 113.071 95.9398 113.709 95.9398 114.468C95.9398 115.227 96.1519 115.865 96.6065 116.351C97.061 116.837 97.6065 117.08 98.2428 117.08C98.9095 117.11 99.455 116.867 99.8792 116.381Z" fill="white"/>
<path d="M108.182 117.687C107.636 118.113 106.939 118.355 106.091 118.355C105.364 118.355 104.727 118.173 104.152 117.778C103.606 117.384 103.212 116.898 102.97 116.26L104.182 115.744C104.364 116.169 104.606 116.533 104.97 116.776C105.303 117.019 105.697 117.141 106.091 117.141C106.515 117.141 106.879 117.05 107.182 116.867C107.485 116.685 107.606 116.442 107.606 116.199C107.606 115.744 107.242 115.379 106.545 115.167L105.303 114.863C103.879 114.498 103.182 113.83 103.182 112.798C103.182 112.129 103.455 111.613 104 111.188C104.545 110.793 105.242 110.581 106.061 110.581C106.697 110.581 107.273 110.732 107.818 111.036C108.333 111.34 108.697 111.765 108.909 112.281L107.697 112.798C107.545 112.494 107.333 112.251 107.03 112.069C106.727 111.887 106.364 111.795 105.97 111.795C105.606 111.795 105.303 111.887 105 112.069C104.727 112.251 104.576 112.464 104.576 112.737C104.576 113.162 104.97 113.466 105.758 113.618L106.849 113.891C108.303 114.255 109 114.984 109 116.078C109.03 116.715 108.727 117.262 108.182 117.687Z" fill="white"/>
</g>
<defs>
<clipPath id="clip0">
<rect width="76" height="95" fill="white" transform="translate(33 27)"/>
</clipPath>
</defs>
</svg>
