<svg width="143" height="143" viewBox="0 0 143 143" fill="none" xmlns="http://www.w3.org/2000/svg">
<g clip-path="url(#clip0)">
<path d="M59.0307 32.6861C59.758 30.7727 60.758 29.0112 62.2428 27.5838C68.1822 21.7829 78.0004 23.2407 82.0307 30.5297C85.061 36.0572 88.2731 41.4632 91.3943 46.93C96.6065 56.0109 101.879 65.0918 107.031 74.203C111.364 81.8261 106.667 91.4537 98.061 92.7596C92.7883 93.5492 87.8489 91.1196 85.1216 86.3817C80.5458 78.3942 75.9398 70.4067 71.364 62.4495C71.2731 62.2673 71.1519 62.1154 71.0307 61.9636C70.5459 61.5687 70.3337 60.9917 70.0307 60.4754C68.0004 56.8916 65.9095 53.3382 63.8792 49.7849C62.5762 47.4767 61.2125 45.1989 59.9095 42.8907C58.7277 40.8255 58.1822 38.578 58.2428 36.2091C58.3337 34.9943 58.4852 33.7794 59.0307 32.6861Z" fill="white"/>
<path opacity="0.5" d="M59.0299 32.686C58.7571 33.7794 58.5147 34.8727 58.4541 36.0268C58.3632 38.578 58.9996 40.9469 60.2723 43.164C63.6056 48.9041 66.939 54.6745 70.242 60.445C70.545 60.9613 70.7874 61.4776 71.0905 61.9635C69.2723 65.1221 67.4541 68.2503 65.6056 71.4089C63.0602 75.8126 60.5147 80.2468 57.939 84.6505C57.8177 84.6505 57.7874 84.5898 57.7571 84.4987C57.7268 84.2557 57.8177 84.0431 57.8783 83.8002C59.1208 79.2445 58.0905 75.2052 54.9693 71.7429C53.0602 69.6473 50.6359 68.4629 47.848 68.0681C44.2117 67.5518 40.9996 68.4933 38.1208 70.7711C37.6056 71.1659 37.2723 71.7429 36.6662 72.0466C36.545 72.0466 36.4844 71.9859 36.4541 71.8948C37.9086 69.374 39.3329 66.8532 40.7874 64.3325C46.7874 53.8849 52.7874 43.4373 58.8177 33.0201C58.8783 32.8986 58.9693 32.8075 59.0299 32.686Z" fill="white"/>
<path d="M36.5756 71.986C37.1514 71.4697 37.6969 70.923 38.3029 70.4371C45.6666 64.6059 56.7272 68.8274 58.3332 78.0602C58.7272 80.2772 58.515 82.4032 57.8484 84.5292C57.8181 84.7114 57.7878 84.8632 57.7272 85.0455C57.4544 85.5314 57.212 86.0477 56.909 86.5336C54.212 90.9982 50.2423 93.2152 45.0302 92.8811C39.0605 92.456 34.3635 87.9611 33.5453 82.0084C33.1514 79.1232 33.7272 76.4201 35.212 73.9297C35.515 73.3831 35.8787 72.8971 36.212 72.3505C36.3635 72.229 36.3029 71.986 36.5756 71.986Z" fill="white"/>
<path d="M36.5763 71.9859C36.4551 72.1073 36.4551 72.3199 36.243 72.3503C36.2127 72.1377 36.3339 72.0162 36.4551 71.8644L36.5763 71.9859Z" fill="white"/>
<path d="M57.7279 85.0454C57.6067 84.8328 57.7279 84.6809 57.8492 84.5291C57.8795 84.5594 57.9401 84.6202 57.9704 84.6505L57.7279 85.0454Z" fill="#E1C025"/>
<path d="M39.2727 103.086C35.8485 103.086 33 105.849 33 109.251C33 112.653 35.8485 115.386 39.2727 115.386C41.1212 115.386 42.4848 114.778 43.5758 113.655C44.697 112.531 45.0303 110.982 45.0303 109.737C45.0303 109.342 45 108.978 44.9394 108.674H39.2727V110.344H43.303C43.1818 111.286 42.8788 111.984 42.3939 112.47C41.8182 113.047 40.8788 113.716 39.2727 113.716C36.7879 113.716 34.8485 111.711 34.8485 109.251C34.8485 106.791 36.7879 104.786 39.2727 104.786C40.6061 104.786 41.6061 105.303 42.303 106.001L43.4848 104.817C42.4848 103.845 41.1515 103.086 39.2727 103.086ZM49.5455 107.489C47.3939 107.489 45.6061 109.16 45.6061 111.498C45.6061 113.807 47.3636 115.507 49.5455 115.507C51.7273 115.507 53.4848 113.807 53.4848 111.498C53.4848 109.19 51.697 107.489 49.5455 107.489ZM49.5455 113.928C48.3636 113.928 47.3333 112.926 47.3333 111.498C47.3333 110.071 48.3636 109.069 49.5455 109.069C50.7273 109.069 51.7576 110.041 51.7576 111.498C51.7576 112.926 50.7273 113.928 49.5455 113.928ZM58.0909 107.489C55.9091 107.489 54.1515 109.16 54.1515 111.498C54.1515 113.807 55.9091 115.507 58.0909 115.507C60.2424 115.507 62.0303 113.807 62.0303 111.498C62.0303 109.19 60.2727 107.489 58.0909 107.489ZM58.0909 113.928C56.9091 113.928 55.8788 112.926 55.8788 111.498C55.8788 110.071 56.9091 109.069 58.0909 109.069C59.2727 109.069 60.303 110.041 60.303 111.498C60.303 112.926 59.303 113.928 58.0909 113.928ZM66.6061 107.489C64.6364 107.489 62.8485 109.221 62.8485 111.468C62.8485 113.685 64.6364 115.416 66.6061 115.416C67.5455 115.416 68.2727 114.991 68.6667 114.505H68.7273V115.082C68.7273 116.601 67.9394 117.421 66.6364 117.421C65.5758 117.421 64.9394 116.661 64.6667 116.024L63.1515 116.661C63.5758 117.724 64.7273 119 66.6364 119C68.6667 119 70.3636 117.785 70.3636 114.87V107.763H68.7273V108.401H68.6667C68.2727 107.915 67.5455 107.489 66.6061 107.489ZM66.7576 113.867C65.5758 113.867 64.5758 112.865 64.5758 111.468C64.5758 110.071 65.5758 109.038 66.7576 109.038C67.9394 109.038 68.8485 110.071 68.8485 111.468C68.8485 112.865 67.9394 113.867 66.7576 113.867ZM71.6364 103.572H73.3636V115.295H71.6364V103.572V103.572ZM78 107.489C75.9394 107.489 74.2121 109.099 74.2121 111.498C74.2121 113.746 75.9091 115.507 78.1818 115.507C80.0303 115.507 81.0909 114.384 81.5152 113.746L80.1515 112.835C79.697 113.503 79.0606 113.928 78.1818 113.928C77.2727 113.928 76.6364 113.533 76.2424 112.713L81.6061 110.496L81.4242 110.041C81.0909 109.16 80.0606 107.489 78 107.489ZM75.9394 111.377C75.8788 109.828 77.1515 109.038 78.0303 109.038C78.7273 109.038 79.3333 109.372 79.5151 109.889L75.9394 111.377Z" fill="white"/>
<path d="M84.6357 115.113L88.6357 104.452H90.1812L94.1812 115.113H92.666L91.6357 112.227H87.1812L86.1509 115.113H84.6357ZM87.6357 110.952H91.1812L89.4539 106.153H89.3933L87.6357 110.952Z" fill="white"/>
<path d="M95.5762 114.232C94.9095 113.473 94.5762 112.561 94.5762 111.468C94.5762 110.405 94.9095 109.494 95.5762 108.704C96.2731 107.945 97.061 107.581 98.0307 107.581C98.5762 107.581 99.061 107.702 99.4853 107.915C99.9398 108.158 100.273 108.431 100.516 108.826H100.576L100.516 107.824V104.452H101.879V115.113H100.576V114.11H100.516C100.273 114.475 99.9398 114.778 99.4853 115.021C99.0307 115.264 98.5459 115.356 98.0307 115.356C97.061 115.356 96.2428 114.991 95.5762 114.232ZM99.8792 113.381C100.334 112.895 100.546 112.258 100.546 111.468C100.546 110.709 100.334 110.071 99.8792 109.585C99.455 109.099 98.9095 108.856 98.2428 108.856C97.5762 108.856 97.0307 109.099 96.6065 109.585C96.1519 110.071 95.9398 110.709 95.9398 111.468C95.9398 112.227 96.1519 112.865 96.6065 113.351C97.061 113.837 97.6065 114.08 98.2428 114.08C98.9095 114.11 99.455 113.867 99.8792 113.381Z" fill="white"/>
<path d="M108.182 114.687C107.636 115.113 106.939 115.355 106.091 115.355C105.364 115.355 104.727 115.173 104.152 114.778C103.606 114.384 103.212 113.898 102.97 113.26L104.182 112.744C104.364 113.169 104.606 113.533 104.97 113.776C105.303 114.019 105.697 114.141 106.091 114.141C106.515 114.141 106.879 114.05 107.182 113.867C107.485 113.685 107.606 113.442 107.606 113.199C107.606 112.744 107.242 112.379 106.545 112.167L105.303 111.863C103.879 111.498 103.182 110.83 103.182 109.798C103.182 109.129 103.455 108.613 104 108.188C104.545 107.793 105.242 107.581 106.061 107.581C106.697 107.581 107.273 107.732 107.818 108.036C108.333 108.34 108.697 108.765 108.909 109.281L107.697 109.798C107.545 109.494 107.333 109.251 107.03 109.069C106.727 108.887 106.364 108.795 105.97 108.795C105.606 108.795 105.303 108.887 105 109.069C104.727 109.251 104.576 109.464 104.576 109.737C104.576 110.162 104.97 110.466 105.758 110.618L106.849 110.891C108.303 111.255 109 111.984 109 113.078C109.03 113.715 108.727 114.262 108.182 114.687Z" fill="white"/>
</g>
<rect opacity="0.2" width="143" height="143" rx="20" fill="white" fill-opacity="0.9"/>
<defs>
<clipPath id="clip0">
<rect width="76" height="95" fill="white" transform="translate(33 24)"/>
</clipPath>
</defs>
</svg>
