<svg width="156" height="94" viewBox="0 0 156 94" fill="none" xmlns="http://www.w3.org/2000/svg">
<rect opacity="0.2" width="156" height="93.9545" rx="20" fill="white" fill-opacity="0.9"/>
<g clip-path="url(#clip0)">
<path d="M72.1741 52.5943C68.5981 57.3294 65.4923 56.1676 62.9953 51.4784C61.9394 52.5446 60.795 53.5191 59.5773 54.3981C56.9415 56.0376 54.117 54.5013 53.9436 51.3905C53.8819 50.2401 53.9436 49.0707 53.8896 47.9013C53.7817 47.4885 53.6045 47.1025 53.3617 46.7509C52.9648 46.9497 52.3945 47.049 52.2018 47.3701C51.7471 48.2108 51.3541 49.086 51.0343 49.9841C50.568 51.0924 50.1557 52.2351 49.6624 53.3128C49.1576 54.4211 47.9246 55.0096 46.7338 54.7153C45.5508 54.6007 44.6491 53.6109 44.6607 52.43C44.5721 50.9395 44.7416 49.4299 44.6607 47.9318C44.5644 47.4388 44.3987 46.9573 44.1675 46.5102C43.7629 46.8427 43.181 47.0873 42.9729 47.5115C42.183 49.2121 41.4778 51.0503 40.6878 52.793C40.4489 53.3892 40.1175 53.9434 39.7014 54.4325C38.8536 55.3918 37.3816 55.4911 36.4144 54.6504C36.0213 54.3102 35.7555 53.844 35.6591 53.3357C35.5859 53.0873 35.5397 52.8351 35.5281 52.579C35.5281 49.0898 35.4125 45.5356 35.4742 42.0121C35.505 41.0757 35.8133 40.1662 36.3527 39.398C36.9153 38.6757 37.7053 38.156 38.5954 37.9152C39.948 37.556 40.6185 38.1942 40.6801 39.6579C40.7341 40.7815 40.6801 41.9165 40.6801 43.0477L41.2697 43.2121C41.7013 42.7955 42.0943 42.3445 42.4488 41.8592C43.1887 40.6554 43.8284 39.3827 44.5682 38.1713C45.1038 37.0744 46.3678 36.5356 47.5392 36.8986C48.6914 37.1623 49.4544 38.2553 49.2964 39.4171V43.2006L49.7973 43.3573C50.1518 43.0401 50.4871 42.6961 50.7915 42.3293C51.8473 41.0834 52.83 39.7649 53.9205 38.5534C54.3752 38.0375 54.9455 37.6324 55.5813 37.3687C56.8568 36.7496 58.3904 37.2732 59.0147 38.5381C59.2536 39.0197 59.3307 39.5624 59.2382 40.0897C59.0609 42.6197 58.9029 45.1458 58.7642 47.6758C58.7604 48.1344 58.7835 48.5968 58.8336 49.0516C60.7333 48.4439 62.1244 46.8236 62.4288 44.8669C62.5598 42.7802 62.8142 40.705 63.1918 38.649C63.3922 37.4031 64.4287 36.4515 65.6965 36.356C66.8333 36.1228 68.0047 36.57 68.6868 37.5063C69.4574 38.6031 69.4883 40.0515 68.7561 41.1751C67.7003 42.9178 67.7696 44.8095 68.0086 46.6745C68.1242 47.4924 68.5866 48.2185 69.2763 48.6809C70.2358 49.1433 71.0335 48.3064 71.4111 47.4694C72.0855 45.7573 72.675 44.0108 73.1683 42.2375C73.5382 41.007 73.6885 39.7076 74.0469 38.4885C74.5902 36.7878 75.804 36.0388 77.2645 36.3789C78.8097 36.7572 79.8039 38.2477 79.5495 39.8069C79.4455 40.6783 79.1025 41.4617 78.9677 42.3101C78.5438 44.8745 78.1777 47.4465 77.7616 50.1561C79.7499 49.537 81.3298 49.0057 82.9483 48.5777C83.7074 48.421 84.4858 48.3675 85.2603 48.4287C86.7208 48.4287 87.4067 49.151 87.896 50.7905C89.5029 55.9612 92.9864 59.0568 98.3735 59.9549C106.127 61.2542 113.51 54.3561 112.739 46.5904C112.685 46.0745 112.616 45.5624 112.581 45.0465C112.269 43.6363 113.171 42.2414 114.593 41.9318C116.014 41.6222 117.421 42.5165 117.733 43.9267C117.768 44.0911 117.791 44.2554 117.795 44.4235C118.858 51.486 116.616 57.3523 110.92 61.7014C103.075 67.6326 91.8651 66.1307 85.8846 58.3498C85.3952 57.7115 84.9482 57.0389 84.5474 56.3396C83.3413 54.2644 82.956 54.1421 80.7672 55.1816C80.6555 55.2466 80.536 55.3039 80.4166 55.3574C78.2278 56.1676 77.4109 57.6924 77.2067 60.0389C76.9177 63.7536 76.3281 67.4415 75.4495 71.0683C74.2704 75.6964 71.415 76.5181 67.5384 73.6824C62.7486 70.2199 61.8701 64.8696 65.5347 60.3256C67.1184 58.5103 68.9064 56.8822 70.8716 55.4797C71.8812 54.8988 72.4053 53.737 72.1741 52.5943ZM71.8119 61.2619L71.2686 61.0249C70.5171 62.0224 69.8235 63.0619 69.1954 64.1358C68.6791 65.1791 68.918 66.4364 69.785 67.2237C70.3476 67.8237 70.9295 67.9919 71.0874 66.9256C71.3726 65.011 71.5421 63.1536 71.8119 61.2619Z" fill="white"/>
<path d="M108.797 33.2565C108.573 31.4259 109.34 29.6145 110.808 28.4871C111.899 27.5202 112.874 26.4042 113.956 25.4182C114.361 25.1507 114.808 24.9482 115.274 24.8182C115.467 25.2195 115.602 25.6437 115.679 26.0832C115.733 27.6272 115.721 29.1711 115.679 30.7227C115.679 31.8043 116.161 32.282 117.251 32.2744H122.052C122.453 32.3431 122.842 32.4731 123.205 32.6565C123.101 33.0884 122.927 33.4973 122.684 33.868C121.409 35.2094 120.049 36.482 118.754 37.8005C117.864 38.7215 116.577 39.1496 115.309 38.9432C113.536 38.6757 111.76 39.4018 110.693 40.8349C109.328 42.3865 107.729 43.728 106.296 45.2375C105.891 45.6923 105.672 46.2808 105.672 46.8847C105.899 49.8923 103.622 52.5102 100.593 52.7319C97.5601 52.9573 94.9206 50.6987 94.6971 47.6949C94.6816 47.5076 94.6778 47.3165 94.6855 47.1293C94.7895 44.1713 97.2943 41.8553 100.277 41.9585C100.427 41.9623 100.581 41.9738 100.732 41.9929C101.494 42.119 102.273 41.84 102.782 41.2591C104.25 39.7419 105.726 38.2247 107.309 36.8222C108.461 35.8476 109.167 34.8005 108.797 33.2565Z" fill="white"/>
<path d="M84.0513 39.9253C84.2016 39.4629 84.3904 39.0158 84.6139 38.5839C88.421 32.0832 95.9314 28.6437 103.392 29.989C105.21 30.3367 106.239 31.5597 105.977 33.0769C105.715 34.5941 104.332 35.4998 102.459 35.1597C97.3302 34.2272 92.1473 36.4973 89.3883 40.8884C89.1609 41.305 88.895 41.6986 88.5983 42.0655C87.87 42.9177 86.6562 43.1814 85.635 42.7037C84.5869 42.2642 84.032 41.4196 84.0513 39.9253Z" fill="white"/>
</g>
<defs>
<clipPath id="clip0">
<rect width="87.75" height="50.5227" fill="white" transform="translate(35.4541 24.8182)"/>
</clipPath>
</defs>
</svg>
