<svg width="140" height="140" viewBox="0 0 140 140" fill="none" xmlns="http://www.w3.org/2000/svg">
<rect width="140" height="140" rx="29" fill="white"/>
<path d="M31.7083 83.7792C33.6345 89.5011 36.8777 94.8786 41.4376 99.4385C57.2121 115.213 82.7703 115.23 98.5236 99.4768C112.583 85.4171 114.081 63.5474 103.027 47.7934M29.5962 71.0814C29.5554 63.5929 31.5855 56.0978 35.687 49.5288M57.204 32.5914C69.1031 28.6549 82.4784 30.4085 93.0827 37.8496" stroke="black" stroke-width="4" stroke-linecap="round"/>
<path d="M100.899 82.5161C99.0429 87.7452 95.821 92.5472 91.2784 96.3529C82.2993 103.875 70.3767 105.648 59.9058 102.095M102.587 68.0139C101.902 61.6626 99.3695 55.4123 94.9221 50.1207C83.1607 36.1268 62.4604 34.1371 48.6866 45.6766C37.3068 55.2103 34.2153 70.9962 40.1173 84.0875" stroke="#5E4DFF" stroke-width="4" stroke-linecap="round"/>
<path d="M44.1126 71.2623C43.6542 82.2659 49.9481 92.4892 60.5012 96.1882C73.8166 100.856 88.8704 93.3687 94.1247 79.4658C95.0846 76.926 95.6511 74.3477 95.8546 71.8013M52.5079 52.3839C59.5886 45.3837 70.0036 42.5027 79.529 45.8415C85.6838 47.9989 90.3898 52.3756 93.1525 57.8319" stroke="black" stroke-width="4" stroke-linecap="round"/>
<path d="M83.6056 83.4067C86.0394 80.6741 87.7427 77.219 88.3315 73.3377C89.901 62.9922 82.9581 53.5359 72.8241 52.2165C62.69 50.8971 53.2025 58.2142 51.633 68.5597C50.7721 74.2342 52.4722 79.6412 55.8551 83.5846" stroke="black" stroke-width="4" stroke-linecap="round"/>
<path d="M60.0283 76.3475C61.507 79.3832 64.3328 81.6524 67.8864 82.2371C73.9079 83.2278 79.7388 79.0065 80.91 72.8086C82.0813 66.6108 78.1494 60.7833 72.1279 59.7926C70.5308 59.5298 68.9472 59.6337 67.4604 60.0438" stroke="#5E4DFF" stroke-width="4" stroke-linecap="round"/>
<ellipse cx="69.9991" cy="71.0007" rx="3.7493" ry="3.74931" fill="#6956FF"/>
<ellipse cx="69.9991" cy="71.0007" rx="3.7493" ry="3.74931" fill="black"/>
</svg>
