<svg width="140" height="140" viewBox="0 0 140 140" fill="none" xmlns="http://www.w3.org/2000/svg">
<rect width="140" height="140" rx="29" fill="#ECF0FA"/>
<path d="M31.7085 83.7794C33.6347 89.5012 36.8779 94.8787 41.4379 99.4386C57.2123 115.213 82.7705 115.23 98.5238 99.4769C112.583 85.4173 114.081 63.5476 103.027 47.7936M29.5964 71.0815C29.5557 63.5931 31.5857 56.098 35.6872 49.5289M57.2042 32.5916C69.1033 28.655 82.4786 30.4087 93.0829 37.8497" stroke="black" stroke-width="4" stroke-linecap="round"/>
<path d="M100.821 82.2346C98.9153 87.4772 95.647 92.3051 91.0657 96.1493C82.0102 103.748 70.0602 105.627 59.6114 102.169M102.641 67.7263C102.013 61.3851 99.5341 55.1614 95.1302 49.913C83.4839 36.0335 62.7818 34.231 48.8907 45.887C37.414 55.5171 34.1771 71.3209 39.9665 84.3511" stroke="#5E4DFF" stroke-width="4" stroke-linecap="round"/>
<path d="M43.7506 70.5843C43.5776 81.459 50.2283 91.734 61.0232 95.6631C74.6438 100.621 89.7044 93.5977 94.6619 79.9771C95.5676 77.4888 96.0734 74.9524 96.2122 72.4384M51.7599 52.1213C58.7516 45.3765 69.2322 42.792 78.9759 46.3384C85.2718 48.6299 90.1581 53.0801 93.103 58.5488" stroke="black" stroke-width="4" stroke-linecap="round"/>
<path d="M83.9504 83.4188C86.3684 80.7498 88.0382 77.3568 88.5764 73.5274C90.0109 63.3201 82.8624 53.8773 72.6098 52.4364C62.3571 50.9955 52.8828 58.102 51.4482 68.3093C50.6614 73.908 52.4567 79.2766 55.9302 83.221" stroke="black" stroke-width="4" stroke-linecap="round"/>
<path d="M59.9613 76.1148C61.5144 79.145 64.4204 81.4384 68.0347 82.0757C74.1592 83.1556 79.9985 79.0717 81.0772 72.954C82.1559 66.8363 78.0655 61.0015 71.9411 59.9216C70.3168 59.6352 68.7125 59.712 67.2118 60.0937" stroke="#5E4DFF" stroke-width="4" stroke-linecap="round"/>
<circle cx="69.9993" cy="71.0008" r="3.7493" fill="#6956FF"/>
<circle cx="69.9993" cy="71.0008" r="3.7493" fill="black"/>
</svg>
