<svg width="26" height="26" viewBox="0 0 26 26" fill="none" xmlns="http://www.w3.org/2000/svg">
<path d="M24.3756 0C13.3634 0 4.30569 8.47168 3.34588 19.2378C5.17563 16.6573 7.41706 14.1743 10.2153 11.3197C10.4233 11.1053 10.7678 11.1009 10.9812 11.3122C11.1947 11.5212 11.1979 11.8647 10.9888 12.0781C10.5674 12.5071 10.1395 12.9524 9.70938 13.4031C9.46344 13.6598 9.22294 13.9155 8.98681 14.1668C8.94349 14.2134 8.90013 14.26 8.85681 14.3076C5.39881 18.0104 2.92663 21.2333 1.13151 25.2362C1.00907 25.5092 1.13151 25.8299 1.40344 25.9523C1.47601 25.9848 1.55076 26 1.62551 26C1.83244 26 2.03069 25.8808 2.12057 25.6804C2.75976 24.2559 3.50182 22.9342 4.33601 21.6482C11.902 21.4543 18.7888 17.2456 22.3984 10.5484C22.4884 10.3805 22.484 10.1779 22.3865 10.0133C22.2879 9.85075 22.1113 9.75 21.9207 9.75H19.9144L23.5121 7.69382C23.6259 7.62882 23.7136 7.52375 23.7559 7.40025C24.5272 5.15775 24.9172 2.85025 24.9172 0.541684C24.9172 0.242684 24.6746 0 24.3756 0Z" fill="#2047CF"/>
</svg>
