<svg width="50" height="50" viewBox="0 0 50 50" fill="none" xmlns="http://www.w3.org/2000/svg">
<rect width="50" height="50" rx="15" fill="#7DB1FF"/>
<path d="M18.9929 17.7502C21.5999 15.5906 24.1917 14.5851 26.7684 14.7338C29.3653 14.8657 31.6683 16.1442 33.6772 18.5693L31.5552 20.3271C30.0485 18.5083 28.3662 17.5676 26.5083 17.5051C24.6706 17.4258 22.7514 18.2148 20.7507 19.8722L12.6267 26.6021L10.8688 24.4802L18.9929 17.7502Z" fill="white"/>
<path d="M30.5305 32.771C27.9236 34.9306 25.3317 35.9361 22.755 35.7874C20.1581 35.6555 17.8552 34.377 15.8462 31.952L17.9682 30.1941C19.4749 32.013 21.1572 32.9536 23.0151 33.0162C24.8528 33.0955 26.772 32.3064 28.7727 30.6491L36.8968 23.9191L38.6546 26.0411L30.5305 32.771Z" fill="#3DFFC5"/>
</svg>
