<svg width="50" height="50" viewBox="0 0 50 50" fill="none" xmlns="http://www.w3.org/2000/svg">
<rect width="50" height="50" rx="11" fill="#66A3FF"/>
<path d="M18.9937 17.7502C21.6007 15.5906 24.1926 14.5851 26.7693 14.7338C29.3662 14.8657 31.6691 16.1442 33.6781 18.5693L31.5561 20.3271C30.0494 18.5083 28.3671 17.5676 26.5092 17.5051C24.6715 17.4258 22.7523 18.2148 20.7516 19.8722L12.6275 26.6021L10.8697 24.4802L18.9937 17.7502Z" fill="white"/>
<path d="M30.5305 32.7711C27.9236 34.9307 25.3317 35.9362 22.755 35.7875C20.1581 35.6556 17.8552 34.3771 15.8462 31.952L17.9682 30.1942C19.4749 32.013 21.1572 32.9537 23.0151 33.0162C24.8528 33.0955 26.772 32.3065 28.7727 30.6491L36.8968 23.9192L38.6546 26.0411L30.5305 32.7711Z" fill="#3DFFC5"/>
</svg>
