<svg width="50" height="50" viewBox="0 0 50 50" fill="none" xmlns="http://www.w3.org/2000/svg">
<rect width="50" height="50" rx="14" fill="#011630"/>
<path d="M11.967 27.4546C8.64832 30.6428 8.50653 32.0223 8.85047 32.3136L9.22951 31.9939L10.2613 31.0775L12.3039 29.7562L14.9782 28.5415L20.1584 32.5054L23.4013 35.3823C27.8444 31.6955 37.2024 23.9127 39.0892 22.276C40.9759 20.6393 41.2651 19.5056 41.1739 19.1433L40.7738 19.5482L40.2473 19.9318L36.3727 22.276L30.7925 20.2515L26.7494 15.4352C23.2047 18.1133 15.2857 24.2665 11.967 27.4546Z" fill="white"/>
<path d="M23.4854 34.6821C23.4854 34.6821 23.7788 37.5574 24.6468 38.3234C25.8714 38.0528 35.2283 35.6569 36.05 25.4872C37.8653 23.5924 40.0366 21.3173 40.0366 21.3171L23.4854 34.6821Z" fill="url(#paint0_radial)"/>
<path d="M24.5653 11.4668C24.5452 11.4541 24.5251 11.4417 24.5049 11.4288C19.2229 14.7845 12.2793 15.0083 12.2793 15.0083C12.2793 15.0083 12.2793 15.7241 12.7657 24.8965C12.7853 25.2676 12.8169 25.6281 12.8584 25.9793C12.3524 26.5237 10.4704 28.5755 9.71777 29.7684C10.5055 28.9939 26.5864 16.313 26.5864 16.313C25.9127 12.6189 24.8307 11.6532 24.5653 11.4668Z" fill="url(#paint1_radial)"/>
<path d="M23.4607 34.5997L22.1454 25.1707C22.1454 25.1707 17.9843 26.7716 14.4196 28.4912C13.3106 29.0261 12.2093 29.5927 11.1449 30.22C9.55078 31.1594 8.55372 31.9717 8.96315 32.373C9.36376 32.7658 11.111 32.7654 14.9634 32.1058C18.2629 37.5178 24.5051 38.2748 24.5051 38.2748C24.5051 38.2748 24.552 38.2661 24.6394 38.247C23.9351 37.6706 23.4607 34.5997 23.4607 34.5997ZM10.3863 31.2181C10.7 30.9952 11.033 30.7996 11.3656 30.6035C12.1304 30.1529 12.9158 29.7372 13.706 29.336C13.9419 30.0736 14.2271 30.7514 14.5506 31.374C11.5223 31.85 10.3957 31.8774 9.98291 31.8171C9.92841 31.8092 9.81046 31.8017 9.78254 31.7421C9.76384 31.7022 9.83931 31.6069 10.3863 31.2181Z" fill="url(#paint2_radial)"/>
<path d="M40.8475 18.7059C40.222 18.5344 38.8771 18.5777 36.5567 18.9258C36.7305 15.4615 36.7306 15.0082 36.7306 15.0082C36.7306 15.0082 29.8398 14.7861 24.5654 11.4668C24.8437 11.6621 26.0192 12.7135 26.6811 16.8666C26.7444 17.2636 28.082 26.2236 28.082 26.2236C28.082 26.2236 44.0796 19.5929 40.8475 18.7059ZM36.4001 21.9562C36.4427 21.1494 36.4799 20.435 36.5122 19.8029C36.5122 19.8029 39.7842 19.2802 40.3476 19.4606C40.478 19.5024 40.4129 19.5983 40.3324 19.6616C40.1237 19.8256 39.4001 20.3006 39.0784 20.4953C38.3698 20.9241 37.4726 21.4133 36.4001 21.9562Z" fill="url(#paint3_radial)"/>
<mask id="mask0" mask-type="alpha" maskUnits="userSpaceOnUse" x="13" y="27" width="5" height="5">
<path d="M14.538 31.3489C14.7692 29.3558 17.4107 27.5829 17.4107 27.5829C16.4986 27.9521 14.7966 28.7951 13.709 29.3443C13.9411 30.0688 14.221 30.7355 14.538 31.3489Z" fill="url(#paint4_linear)"/>
</mask>
<g mask="url(#mask0)">
<path d="M14.538 31.3489C14.7692 29.3558 17.4107 27.5829 17.4107 27.5829C16.4986 27.9521 14.7966 28.7951 13.709 29.3443C13.9411 30.0688 14.221 30.7355 14.538 31.3489Z" fill="url(#paint5_linear)"/>
</g>
<mask id="mask1" mask-type="alpha" maskUnits="userSpaceOnUse" x="12" y="21" width="5" height="5">
<path d="M12.7148 23.9376C12.7311 24.2467 12.748 24.566 12.7655 24.8966C12.7851 25.2677 12.8166 25.6283 12.8582 25.9795L16.5147 21.8837C16.5148 21.8838 14.366 23.5923 12.7148 23.9376Z" fill="url(#paint6_linear)"/>
</mask>
<g mask="url(#mask1)">
</g>
<mask id="mask2" mask-type="alpha" maskUnits="userSpaceOnUse" x="30" y="20" width="7" height="5">
<path d="M30.7451 24.5732C32.4176 23.9383 36.4002 21.956 36.4002 21.956C36.4354 21.2889 36.467 20.6852 36.495 20.1387C35.6621 21.2305 30.7451 24.5732 30.7451 24.5732Z" fill="url(#paint7_linear)"/>
</mask>
<g mask="url(#mask2)">
<path opacity="0.7" d="M30.7451 24.5732C32.4176 23.9383 36.4002 21.956 36.4002 21.956C36.4354 21.2889 36.467 20.6852 36.495 20.1387C35.6621 21.2305 30.7451 24.5732 30.7451 24.5732Z" fill="url(#paint8_linear)"/>
</g>
<mask id="mask3" mask-type="alpha" maskUnits="userSpaceOnUse" x="31" y="25" width="6" height="6">
<path d="M31.2939 30.3085C31.2939 30.3085 34.1025 27.8779 35.8998 27.4813C36.0445 26.8234 36.1506 26.1272 36.211 25.3899L31.2939 30.3085Z" fill="url(#paint9_linear)"/>
</mask>
<g mask="url(#mask3)">
</g>
<defs>
<radialGradient id="paint0_radial" cx="0" cy="0" r="1" gradientUnits="userSpaceOnUse" gradientTransform="translate(37.454 29.8041) rotate(158.941) scale(15.454 15.7235)">
<stop stop-color="#F8DDA9"/>
<stop offset="1" stop-color="#FF8743"/>
</radialGradient>
<radialGradient id="paint1_radial" cx="0" cy="0" r="1" gradientUnits="userSpaceOnUse" gradientTransform="translate(14.1985 18.4828) rotate(-26.8403) scale(12.4608 11.9583)">
<stop stop-color="#8EDDFF"/>
<stop offset="1" stop-color="#39A0FF"/>
</radialGradient>
<radialGradient id="paint2_radial" cx="0" cy="0" r="1" gradientUnits="userSpaceOnUse" gradientTransform="translate(22.9586 38.8775) rotate(-112.229) scale(13.1917 14.7013)">
<stop stop-color="#B9ADFF"/>
<stop offset="1" stop-color="#625FE8"/>
</radialGradient>
<radialGradient id="paint3_radial" cx="0" cy="0" r="1" gradientUnits="userSpaceOnUse" gradientTransform="translate(39.1518 14.2845) rotate(173.966) scale(13.7849 15.1639)">
<stop stop-color="#C2FFA8"/>
<stop offset="0.84375" stop-color="#6AD532"/>
</radialGradient>
<linearGradient id="paint4_linear" x1="10.117" y1="32.7922" x2="15.7229" y2="29.4511" gradientUnits="userSpaceOnUse">
<stop offset="0.1681"/>
<stop offset="0.8687" stop-color="white"/>
</linearGradient>
<linearGradient id="paint5_linear" x1="10.117" y1="32.7922" x2="15.7229" y2="29.4511" gradientUnits="userSpaceOnUse">
<stop offset="0.1681" stop-color="#1B2E94" stop-opacity="0"/>
<stop offset="0.8687" stop-color="#3733CA"/>
</linearGradient>
<linearGradient id="paint6_linear" x1="9.96504" y1="26.6809" x2="16.8103" y2="22.6011" gradientUnits="userSpaceOnUse">
<stop offset="0.1681"/>
<stop offset="0.8687" stop-color="white"/>
</linearGradient>
<linearGradient id="paint7_linear" x1="40.7459" y1="19.5129" x2="32.6025" y2="22.6862" gradientUnits="userSpaceOnUse">
<stop offset="0.257"/>
<stop offset="0.8189" stop-color="white"/>
</linearGradient>
<linearGradient id="paint8_linear" x1="40.7459" y1="19.5129" x2="32.6025" y2="22.6862" gradientUnits="userSpaceOnUse">
<stop offset="0.257" stop-color="#C6D32D"/>
<stop offset="0.8189" stop-color="#006931"/>
</linearGradient>
<linearGradient id="paint9_linear" x1="37.9682" y1="24.8093" x2="32.9456" y2="28.9781" gradientUnits="userSpaceOnUse">
<stop offset="0.257"/>
<stop offset="0.8189" stop-color="white"/>
</linearGradient>
</defs>
</svg>
