<svg width="80" height="80" viewBox="0 0 80 80" fill="none" xmlns="http://www.w3.org/2000/svg">
<rect opacity="0.2" width="80" height="80" rx="20" fill="white" fill-opacity="0.9"/>
<g clip-path="url(#clip0)">
<path d="M62.4787 50.8241C56.2229 49.7946 53.4035 43.3867 53.2894 43.1147C53.2806 43.0971 53.2748 43.0796 53.2631 43.0621C52.9443 42.4128 52.8683 41.8776 53.0437 41.471C53.3859 40.6697 54.6962 40.2544 55.5619 39.9795C55.8134 39.9005 56.0503 39.8244 56.2462 39.7484C57.1003 39.4121 57.7086 39.0465 58.1122 38.6341C58.5918 38.1398 58.6854 37.666 58.6796 37.359C58.6649 36.6102 58.0917 35.9434 57.1763 35.6188C56.8692 35.493 56.5153 35.4258 56.1585 35.4258C55.9158 35.4258 55.5531 35.4579 55.2109 35.6188C54.4798 35.961 53.8246 36.1481 53.2602 36.1745C52.9618 36.1598 52.7513 36.0955 52.6138 36.0341C52.6314 35.7416 52.6489 35.4404 52.6694 35.1304L52.6782 34.9958C52.88 31.8284 53.1286 27.8889 52.0815 25.5492C51.365 23.9464 50.4028 22.5689 49.2183 21.4517C48.2268 20.5158 47.0745 19.7554 45.7935 19.1939C43.5678 18.2112 41.4913 18.0649 40.4501 18.0649H40.4472C40.4063 18.0649 40.3682 18.0649 40.3331 18.0649C40.0436 18.0679 39.5727 18.0737 39.5289 18.0737C38.4906 18.0737 36.4112 18.2199 34.1797 19.2026C32.9016 19.7642 31.7551 20.5217 30.7666 21.4576C29.5879 22.5748 28.6286 23.9494 27.915 25.5462C26.868 27.883 27.1166 31.8226 27.3155 34.9871V34.9929C27.3359 35.3322 27.3593 35.686 27.3798 36.0312C27.2277 36.0984 26.9791 36.1745 26.6135 36.1745C26.0228 36.1745 25.3208 35.9873 24.5283 35.6159C24.2943 35.5076 24.0281 35.4521 23.7357 35.4521C23.2648 35.4521 22.7647 35.5895 22.3348 35.844C21.7908 36.1628 21.4398 36.6102 21.3433 37.1104C21.2819 37.4379 21.2848 38.0901 22.0101 38.7511C22.4108 39.1138 22.9957 39.4501 23.7532 39.7484C23.9521 39.8274 24.189 39.9005 24.4376 39.9795C25.3033 40.2544 26.6165 40.6697 26.9587 41.471C27.1312 41.8776 27.0552 42.4128 26.7364 43.0621C26.7276 43.0796 26.7188 43.0971 26.713 43.1147C26.6311 43.3019 25.8853 44.9836 24.3557 46.7588C23.4871 47.7678 22.5307 48.6131 21.5129 49.2682C20.27 50.0696 18.9275 50.5901 17.5208 50.8212C16.968 50.9119 16.5732 51.4032 16.6053 51.9618C16.6141 52.1227 16.6521 52.2835 16.7194 52.4385V52.4415C16.9446 52.965 17.4623 53.4066 18.3046 53.7956C19.3341 54.2723 20.8724 54.673 22.8817 54.9859C22.984 55.1789 23.0893 55.6615 23.1624 55.992C23.2385 56.343 23.3175 56.7056 23.4315 57.0887C23.5544 57.5041 23.8702 58.0012 24.6862 58.0012C24.9962 58.0012 25.3501 57.9311 25.7625 57.8521C26.365 57.7351 27.1897 57.5742 28.2163 57.5742C28.7866 57.5742 29.3774 57.624 29.9711 57.7234C31.1175 57.9135 32.1061 58.6096 33.2496 59.4168C34.9225 60.5983 36.8177 61.9349 39.7131 61.9349C39.7921 61.9349 39.8711 61.932 39.95 61.9261C40.0436 61.932 40.1635 61.9349 40.2864 61.9349C43.1818 61.9349 45.077 60.5983 46.7499 59.4197L46.7528 59.4168C47.8963 58.6125 48.8849 57.9164 50.0313 57.7263C50.625 57.6269 51.2158 57.5772 51.7861 57.5772C52.7688 57.5772 53.5468 57.7029 54.2399 57.8375C54.6933 57.9252 55.0442 57.9691 55.3162 57.9691H55.3425H55.3689C55.9655 57.9691 56.4042 57.6415 56.5709 57.0712C56.682 56.6939 56.761 56.343 56.84 55.9832C56.9072 55.6732 57.0184 55.176 57.1178 54.983C59.127 54.6671 60.6654 54.2694 61.6949 53.7927C62.5343 53.4037 63.0519 52.962 63.2771 52.4415C63.3444 52.2864 63.3854 52.1256 63.3941 51.9589C63.4263 51.4061 63.0315 50.9119 62.4787 50.8241Z" fill="white"/>
</g>
<defs>
<clipPath id="clip0">
<rect width="46.7925" height="46.7925" fill="white" transform="translate(16.6035 16.6038)"/>
</clipPath>
</defs>
</svg>
