<svg width="80" height="80" viewBox="0 0 80 80" fill="none" xmlns="http://www.w3.org/2000/svg">
<rect opacity="0.2" width="80" height="80" rx="20" fill="white" fill-opacity="0.9"/>
<path d="M64 26.3802C62.2894 27.1231 60.4666 27.6155 58.5662 27.8545C60.5212 26.699 62.0134 24.8832 62.7149 22.6945C60.8921 23.7703 58.8796 24.5302 56.7349 24.9543C55.0041 23.1299 52.5374 22 49.8464 22C44.6254 22 40.4221 26.1952 40.4221 31.3382C40.4221 32.0782 40.4854 32.7898 40.6406 33.4672C32.8005 33.0886 25.8631 29.3687 21.2027 23.702C20.3891 25.0995 19.9119 26.699 19.9119 28.4209C19.9119 31.6542 21.5938 34.5202 24.1007 36.1795C22.5856 36.1511 21.0992 35.7156 19.84 35.0297C19.84 35.0582 19.84 35.0952 19.84 35.1322C19.84 39.6689 23.1089 43.4372 27.3955 44.3053C26.6279 44.5131 25.7912 44.6127 24.923 44.6127C24.3193 44.6127 23.7097 44.5785 23.1376 44.4533C24.3595 48.1505 27.8268 50.8685 31.9495 50.9568C28.741 53.4415 24.6671 54.9385 20.2569 54.9385C19.4835 54.9385 18.7417 54.9044 18 54.8105C22.1774 57.4773 27.1281 59 32.467 59C49.8205 59 59.308 44.7692 59.308 32.434C59.308 32.0213 59.2936 31.6228 59.2735 31.2272C61.1451 29.9123 62.7178 28.2701 64 26.3802Z" fill="white"/>
</svg>
